<mxfile host="app.diagrams.net" agent="Mozilla/5.0 (Windows NT 10.0; Win64; x64; rv:135.0) Gecko/20100101 Firefox/135.0" version="26.0.12">
  <diagram name="Pagina-1" id="MQBXEES3nzHE7K_IIKbU">
    <mxGraphModel dx="1500" dy="809" grid="1" gridSize="10" guides="1" tooltips="1" connect="1" arrows="1" fold="1" page="1" pageScale="1" pageWidth="3300" pageHeight="2339" math="0" shadow="0">
      <root>
        <mxCell id="0" />
        <mxCell id="1" parent="0" />
        <mxCell id="9dSPCgguCx3j1RxGnscm-1" value="" style="html=1;overflow=block;blockSpacing=1;whiteSpace=wrap;rounded=1;absoluteArcSize=1;arcSize=24;container=1;pointerEvents=0;collapsible=0;recursiveResize=0;fontSize=13;spacing=0;strokeColor=#666666;fillOpacity=0;fillColor=#f5f5f5;strokeWidth=NaN;lucidId=ARVRokSl0pFR;fontColor=#333333;" parent="1" vertex="1">
          <mxGeometry x="210" y="940" width="1035" height="527" as="geometry" />
        </mxCell>
        <mxCell id="9dSPCgguCx3j1RxGnscm-225" value="&lt;font style=&quot;font-size: 20px;&quot;&gt;&lt;b&gt;AS 55010&lt;/b&gt;&lt;/font&gt;" style="text;html=1;align=center;verticalAlign=middle;resizable=0;points=[];autosize=1;strokeColor=none;fillColor=none;" parent="9dSPCgguCx3j1RxGnscm-1" vertex="1">
          <mxGeometry x="40" y="20" width="110" height="40" as="geometry" />
        </mxCell>
        <mxCell id="9dSPCgguCx3j1RxGnscm-2" value="" style="html=1;overflow=block;blockSpacing=1;whiteSpace=wrap;rounded=1;absoluteArcSize=1;arcSize=24;container=1;pointerEvents=0;collapsible=0;recursiveResize=0;fontSize=13;spacing=0;strokeColor=#666666;fillOpacity=0;fillColor=#f5f5f5;strokeWidth=NaN;lucidId=VTVRvzMMeu-D;fontColor=#333333;" parent="1" vertex="1">
          <mxGeometry x="525" y="385" width="705" height="345" as="geometry" />
        </mxCell>
        <mxCell id="9dSPCgguCx3j1RxGnscm-3" value="H1" style="html=1;overflow=block;blockSpacing=1;whiteSpace=wrap;shape=mxgraph.cisco.computers_and_peripherals.laptop;verticalLabelPosition=bottom;verticalAlign=top;fillColor=#036897;strokeColor=#ffffff;fontSize=13.3;fontColor=#333333;spacing=0;strokeOpacity=100;fillOpacity=100;strokeWidth=1.5;lucidId=TKURbuQtqFWh;" parent="9dSPCgguCx3j1RxGnscm-2" vertex="1">
          <mxGeometry x="180.13" y="232" width="106" height="87" as="geometry" />
        </mxCell>
        <mxCell id="9dSPCgguCx3j1RxGnscm-203" value="&lt;font style=&quot;font-size: 20px;&quot;&gt;&lt;b&gt;AS 55002&lt;/b&gt;&lt;/font&gt;" style="text;html=1;align=center;verticalAlign=middle;resizable=0;points=[];autosize=1;strokeColor=none;fillColor=none;" parent="9dSPCgguCx3j1RxGnscm-2" vertex="1">
          <mxGeometry x="25" y="20" width="110" height="40" as="geometry" />
        </mxCell>
        <mxCell id="9dSPCgguCx3j1RxGnscm-4" value="" style="html=1;overflow=block;blockSpacing=1;whiteSpace=wrap;rounded=1;absoluteArcSize=1;arcSize=24;container=1;pointerEvents=0;collapsible=0;recursiveResize=0;fontSize=13;spacing=0;strokeColor=#666666;fillOpacity=0;fillColor=#f5f5f5;strokeWidth=NaN;lucidId=FVVRsZxAqTbk;fontColor=#333333;" parent="1" vertex="1">
          <mxGeometry x="1526" y="10" width="484" height="607" as="geometry" />
        </mxCell>
        <mxCell id="9dSPCgguCx3j1RxGnscm-217" value="&lt;font style=&quot;font-size: 22px;&quot;&gt;&lt;b&gt;&lt;font&gt;AS 55001&lt;/font&gt;&lt;/b&gt;&lt;/font&gt;" style="text;html=1;align=center;verticalAlign=middle;whiteSpace=wrap;rounded=0;" parent="9dSPCgguCx3j1RxGnscm-4" vertex="1">
          <mxGeometry x="344" y="40" width="115" height="30" as="geometry" />
        </mxCell>
        <mxCell id="9dSPCgguCx3j1RxGnscm-5" value="" style="html=1;overflow=block;blockSpacing=1;whiteSpace=wrap;rounded=1;absoluteArcSize=1;arcSize=24;container=1;pointerEvents=0;collapsible=0;recursiveResize=0;fontSize=13;spacing=0;strokeColor=#666666;fillOpacity=0;fillColor=#f5f5f5;strokeWidth=NaN;lucidId=vXVRtQ3uxH7K;fontColor=#333333;" parent="1" vertex="1">
          <mxGeometry x="1680" y="910" width="900" height="330" as="geometry" />
        </mxCell>
        <mxCell id="9dSPCgguCx3j1RxGnscm-6" value="" style="html=1;jettySize=18;whiteSpace=wrap;fontSize=13;strokeColor=#3a414a;strokeOpacity=100;strokeWidth=0.8;rounded=1;arcSize=12;edgeStyle=orthogonalEdgeStyle;startArrow=none;endArrow=none;exitX=1.004;exitY=0.5;exitPerimeter=0;entryX=0;entryY=0.5;entryPerimeter=0;lucidId=yqVRWHVJWmas;" parent="9dSPCgguCx3j1RxGnscm-5" edge="1">
          <mxGeometry width="100" height="100" relative="1" as="geometry">
            <Array as="points">
              <mxPoint x="-7" y="220" />
              <mxPoint x="164" y="220" />
            </Array>
            <mxPoint x="-179.99999999999977" y="221" as="sourcePoint" />
            <mxPoint x="164.22000000000003" y="214.00000000000023" as="targetPoint" />
          </mxGeometry>
        </mxCell>
        <mxCell id="9dSPCgguCx3j1RxGnscm-7" value="Eth2" style="text;html=1;resizable=0;labelBackgroundColor=default;align=center;verticalAlign=middle;fontStyle=1;fontColor=#333333;fontSize=13.3;" parent="9dSPCgguCx3j1RxGnscm-6" vertex="1">
          <mxGeometry x="0.8047719898566101" relative="1" as="geometry">
            <mxPoint x="-15" y="-9" as="offset" />
          </mxGeometry>
        </mxCell>
        <mxCell id="9dSPCgguCx3j1RxGnscm-227" value="&lt;font style=&quot;font-size: 20px;&quot;&gt;&lt;b&gt;AS 54020&lt;/b&gt;&lt;/font&gt;" style="text;html=1;align=center;verticalAlign=middle;resizable=0;points=[];autosize=1;strokeColor=none;fillColor=none;" parent="9dSPCgguCx3j1RxGnscm-5" vertex="1">
          <mxGeometry x="747.46" y="20" width="110" height="40" as="geometry" />
        </mxCell>
        <mxCell id="9dSPCgguCx3j1RxGnscm-8" value="" style="html=1;overflow=block;blockSpacing=1;whiteSpace=wrap;rounded=1;absoluteArcSize=1;arcSize=24;container=1;pointerEvents=0;collapsible=0;recursiveResize=0;fontSize=13;spacing=0;strokeColor=#666666;fillOpacity=0;fillColor=#f5f5f5;strokeWidth=NaN;lucidId=xvuSX6tk~0MG;fontColor=#333333;" parent="1" vertex="1">
          <mxGeometry x="1530" y="1540" width="645" height="330" as="geometry" />
        </mxCell>
        <mxCell id="9dSPCgguCx3j1RxGnscm-233" style="edgeStyle=orthogonalEdgeStyle;rounded=0;orthogonalLoop=1;jettySize=auto;html=1;endArrow=none;startFill=0;" parent="9dSPCgguCx3j1RxGnscm-8" source="9dSPCgguCx3j1RxGnscm-199" target="9dSPCgguCx3j1RxGnscm-232" edge="1">
          <mxGeometry relative="1" as="geometry">
            <Array as="points">
              <mxPoint x="200" y="263" />
              <mxPoint x="200" y="263" />
            </Array>
          </mxGeometry>
        </mxCell>
        <mxCell id="9dSPCgguCx3j1RxGnscm-254" value="&lt;b&gt;&lt;font style=&quot;font-size: 13px;&quot;&gt;Eth1&lt;/font&gt;&lt;/b&gt;" style="edgeLabel;html=1;align=center;verticalAlign=middle;resizable=0;points=[];" parent="9dSPCgguCx3j1RxGnscm-233" vertex="1" connectable="0">
          <mxGeometry x="-0.2159" relative="1" as="geometry">
            <mxPoint x="-13" y="-16" as="offset" />
          </mxGeometry>
        </mxCell>
        <mxCell id="9dSPCgguCx3j1RxGnscm-199" value="H5" style="html=1;overflow=block;blockSpacing=1;whiteSpace=wrap;shape=mxgraph.cisco.computers_and_peripherals.laptop;verticalLabelPosition=bottom;verticalAlign=top;fillColor=#036897;strokeColor=#ffffff;fontSize=16.7;spacing=0;strokeOpacity=100;fillOpacity=100;strokeWidth=1.5;lucidId=UGuSC1~siKxt;" parent="9dSPCgguCx3j1RxGnscm-8" vertex="1">
          <mxGeometry x="64" y="190" width="113" height="113" as="geometry" />
        </mxCell>
        <mxCell id="9dSPCgguCx3j1RxGnscm-231" value="&lt;b&gt;AS 54030&lt;/b&gt;" style="text;html=1;align=center;verticalAlign=middle;whiteSpace=wrap;rounded=0;fontSize=21;" parent="9dSPCgguCx3j1RxGnscm-8" vertex="1">
          <mxGeometry x="500" y="20" width="110" height="30" as="geometry" />
        </mxCell>
        <mxCell id="9dSPCgguCx3j1RxGnscm-236" value="" style="edgeStyle=orthogonalEdgeStyle;rounded=0;orthogonalLoop=1;jettySize=auto;html=1;endArrow=none;startFill=0;" parent="9dSPCgguCx3j1RxGnscm-8" source="9dSPCgguCx3j1RxGnscm-158" target="9dSPCgguCx3j1RxGnscm-232" edge="1">
          <mxGeometry relative="1" as="geometry">
            <Array as="points">
              <mxPoint x="310" y="202" />
              <mxPoint x="367" y="202" />
            </Array>
          </mxGeometry>
        </mxCell>
        <mxCell id="9dSPCgguCx3j1RxGnscm-253" value="&lt;b&gt;Eth3&lt;/b&gt;" style="edgeLabel;html=1;align=center;verticalAlign=middle;resizable=0;points=[];" parent="9dSPCgguCx3j1RxGnscm-236" vertex="1" connectable="0">
          <mxGeometry x="0.1972" y="1" relative="1" as="geometry">
            <mxPoint x="-22" y="-21" as="offset" />
          </mxGeometry>
        </mxCell>
        <mxCell id="9dSPCgguCx3j1RxGnscm-158" value="R30" style="html=1;overflow=block;blockSpacing=1;whiteSpace=wrap;shape=mxgraph.cisco.routers.router;verticalLabelPosition=bottom;verticalAlign=top;fillColor=#036897;strokeColor=#ffffff;fontSize=18.3;fontFamily=Liberation Serif;spacing=0;strokeOpacity=100;fillOpacity=100;strokeWidth=1.5;lucidId=0vuSmZRLHlov;" parent="9dSPCgguCx3j1RxGnscm-8" vertex="1">
          <mxGeometry x="230" y="52" width="113" height="113" as="geometry" />
        </mxCell>
        <mxCell id="9dSPCgguCx3j1RxGnscm-232" value="192.168.130.0/24" style="html=1;overflow=block;blockSpacing=1;whiteSpace=wrap;shape=cylinder3;direction=south;size=10;anchorPointDirection=0;boundedLbl=1;fontSize=16.7;spacing=3.8;strokeColor=#3a414a;strokeOpacity=100;fillOpacity=100;rounded=1;absoluteArcSize=1;arcSize=9;fillColor=#ffffff;strokeWidth=1.5;lucidId=qKVRq.omtLO-;" parent="9dSPCgguCx3j1RxGnscm-8" vertex="1">
          <mxGeometry x="270" y="240" width="195" height="45" as="geometry" />
        </mxCell>
        <mxCell id="9dSPCgguCx3j1RxGnscm-9" value="131.114.28.0/24" style="html=1;overflow=block;blockSpacing=1;whiteSpace=wrap;shape=cylinder3;direction=south;size=10;anchorPointDirection=0;boundedLbl=1;fontSize=16.7;spacing=3.8;verticalAlign=middle;strokeColor=#3a414a;strokeOpacity=100;fillOpacity=100;rounded=1;absoluteArcSize=1;arcSize=9;fillColor=#ffffff;strokeWidth=1.5;lucidId=fCURxe5m-ERd;" parent="1" vertex="1">
          <mxGeometry x="1260" y="459" width="195" height="45" as="geometry" />
        </mxCell>
        <mxCell id="9dSPCgguCx3j1RxGnscm-10" value="R2" style="html=1;overflow=block;blockSpacing=1;whiteSpace=wrap;shape=mxgraph.cisco.routers.router;verticalLabelPosition=bottom;verticalAlign=top;fillColor=#036897;strokeColor=#ffffff;fontSize=18.3;fontFamily=Liberation Serif;fontColor=#333333;spacing=0;strokeOpacity=100;fillOpacity=100;strokeWidth=1.5;lucidId=sCURof6pif63;" parent="1" vertex="1">
          <mxGeometry x="945" y="430" width="106" height="87" as="geometry" />
        </mxCell>
        <mxCell id="9dSPCgguCx3j1RxGnscm-11" value="" style="html=1;jettySize=18;whiteSpace=wrap;fontSize=13;strokeColor=#3a414a;strokeOpacity=100;strokeWidth=0.8;rounded=1;arcSize=12;edgeStyle=orthogonalEdgeStyle;startArrow=none;endArrow=none;exitX=1;exitY=0.5;exitPerimeter=0;entryX=-0.004;entryY=0.5;entryPerimeter=0;lucidId=TDUREIDh5YUy;" parent="1" source="9dSPCgguCx3j1RxGnscm-10" target="9dSPCgguCx3j1RxGnscm-9" edge="1">
          <mxGeometry width="100" height="100" relative="1" as="geometry">
            <Array as="points">
              <mxPoint x="1259" y="474" />
            </Array>
          </mxGeometry>
        </mxCell>
        <mxCell id="9dSPCgguCx3j1RxGnscm-12" value="Eth2" style="text;html=1;resizable=0;labelBackgroundColor=default;align=center;verticalAlign=middle;fontStyle=1;fontColor=#333333;fontSize=13.3;" parent="9dSPCgguCx3j1RxGnscm-11" vertex="1">
          <mxGeometry x="-0.6684978784078712" relative="1" as="geometry">
            <mxPoint y="-14" as="offset" />
          </mxGeometry>
        </mxCell>
        <mxCell id="9dSPCgguCx3j1RxGnscm-13" value="" style="group;dropTarget=0;pointerEvents=0;html=1;" parent="1" vertex="1">
          <mxGeometry x="660" y="175" width="386" height="180" as="geometry" />
        </mxCell>
        <mxCell id="9dSPCgguCx3j1RxGnscm-14" value="AS 55002" style="shape=partialRectangle;html=1;whiteSpace=wrap;connectable=0;fillColor=#ffffff;strokeWidth=2;strokeOpacity=100;verticalAlign=middle;spacing=3.8;strokeColor=#3a414a;rounded=1;absoluteArcSize=1;arcSize=9;fontSize=16.7;fontStyle=1;" parent="9dSPCgguCx3j1RxGnscm-13" vertex="1">
          <mxGeometry width="385.5092592592593" height="30" as="geometry" />
        </mxCell>
        <mxCell id="9dSPCgguCx3j1RxGnscm-15" value="Device" style="shape=partialRectangle;html=1;whiteSpace=wrap;connectable=0;fillColor=#ffffff;strokeWidth=2;strokeOpacity=100;verticalAlign=middle;spacing=3.8;strokeColor=#3a414a;rounded=1;absoluteArcSize=1;arcSize=9;fontSize=16.7;fontStyle=1;" parent="9dSPCgguCx3j1RxGnscm-13" vertex="1">
          <mxGeometry y="30" width="60" height="30" as="geometry" />
        </mxCell>
        <mxCell id="9dSPCgguCx3j1RxGnscm-16" value="Interface" style="shape=partialRectangle;html=1;whiteSpace=wrap;connectable=0;fillColor=#ffffff;strokeWidth=2;strokeOpacity=100;verticalAlign=middle;spacing=3.8;strokeColor=#3a414a;rounded=1;absoluteArcSize=1;arcSize=9;fontSize=16.7;fontStyle=1;" parent="9dSPCgguCx3j1RxGnscm-13" vertex="1">
          <mxGeometry x="60" y="30" width="72.26851851851852" height="30" as="geometry" />
        </mxCell>
        <mxCell id="9dSPCgguCx3j1RxGnscm-17" value="Address" style="shape=partialRectangle;html=1;whiteSpace=wrap;connectable=0;fillColor=#ffffff;strokeWidth=2;strokeOpacity=100;verticalAlign=middle;spacing=3.8;strokeColor=#3a414a;rounded=1;absoluteArcSize=1;arcSize=9;fontSize=16.7;fontStyle=1;" parent="9dSPCgguCx3j1RxGnscm-13" vertex="1">
          <mxGeometry x="132.26851851851853" y="30" width="126.62037037037038" height="30" as="geometry" />
        </mxCell>
        <mxCell id="9dSPCgguCx3j1RxGnscm-18" value="Notes" style="shape=partialRectangle;html=1;whiteSpace=wrap;connectable=0;fillColor=#ffffff;strokeWidth=2;strokeOpacity=100;verticalAlign=middle;spacing=3.8;strokeColor=#3a414a;rounded=1;absoluteArcSize=1;arcSize=9;fontSize=16.7;fontStyle=1;" parent="9dSPCgguCx3j1RxGnscm-13" vertex="1">
          <mxGeometry x="258.8888888888889" y="30" width="126.62037037037038" height="30" as="geometry" />
        </mxCell>
        <mxCell id="9dSPCgguCx3j1RxGnscm-19" value="R2" style="shape=partialRectangle;html=1;whiteSpace=wrap;connectable=0;fillColor=#ffffff;strokeWidth=2;strokeOpacity=100;verticalAlign=middle;spacing=3.8;strokeColor=#3a414a;rounded=1;absoluteArcSize=1;arcSize=9;fontSize=16.7;" parent="9dSPCgguCx3j1RxGnscm-13" vertex="1">
          <mxGeometry y="60" width="60" height="30" as="geometry" />
        </mxCell>
        <mxCell id="9dSPCgguCx3j1RxGnscm-20" value="Eth3" style="shape=partialRectangle;html=1;whiteSpace=wrap;connectable=0;fillColor=#ffffff;strokeWidth=2;strokeOpacity=100;verticalAlign=middle;spacing=3.8;strokeColor=#3a414a;rounded=1;absoluteArcSize=1;arcSize=9;fontSize=16.7;" parent="9dSPCgguCx3j1RxGnscm-13" vertex="1">
          <mxGeometry x="60" y="60" width="72.26851851851852" height="30" as="geometry" />
        </mxCell>
        <mxCell id="9dSPCgguCx3j1RxGnscm-21" value="134.114.28.1/24" style="shape=partialRectangle;html=1;whiteSpace=wrap;connectable=0;fillColor=#ffffff;strokeWidth=2;strokeOpacity=100;verticalAlign=middle;spacing=3.8;strokeColor=#3a414a;rounded=1;absoluteArcSize=1;arcSize=9;fontSize=16.7;" parent="9dSPCgguCx3j1RxGnscm-13" vertex="1">
          <mxGeometry x="132.26851851851853" y="60" width="126.62037037037038" height="30" as="geometry" />
        </mxCell>
        <mxCell id="9dSPCgguCx3j1RxGnscm-22" value="" style="shape=partialRectangle;html=1;whiteSpace=wrap;connectable=0;fillColor=#ffffff;strokeWidth=2;strokeOpacity=100;verticalAlign=middle;spacing=3.8;strokeColor=#3a414a;rounded=1;absoluteArcSize=1;arcSize=9;fontSize=13;" parent="9dSPCgguCx3j1RxGnscm-13" vertex="1">
          <mxGeometry x="258.8888888888889" y="60" width="126.62037037037038" height="30" as="geometry" />
        </mxCell>
        <mxCell id="9dSPCgguCx3j1RxGnscm-23" value="R2" style="shape=partialRectangle;html=1;whiteSpace=wrap;connectable=0;fillColor=#ffffff;strokeWidth=2;strokeOpacity=100;verticalAlign=middle;spacing=3.8;strokeColor=#3a414a;rounded=1;absoluteArcSize=1;arcSize=9;fontSize=16.7;" parent="9dSPCgguCx3j1RxGnscm-13" vertex="1">
          <mxGeometry y="90" width="60" height="30" as="geometry" />
        </mxCell>
        <mxCell id="9dSPCgguCx3j1RxGnscm-24" value="Eth2" style="shape=partialRectangle;html=1;whiteSpace=wrap;connectable=0;fillColor=#ffffff;strokeWidth=2;strokeOpacity=100;verticalAlign=middle;spacing=3.8;strokeColor=#3a414a;rounded=1;absoluteArcSize=1;arcSize=9;fontSize=16.7;" parent="9dSPCgguCx3j1RxGnscm-13" vertex="1">
          <mxGeometry x="60" y="90" width="72.26851851851852" height="30" as="geometry" />
        </mxCell>
        <mxCell id="9dSPCgguCx3j1RxGnscm-25" value="131.114.28.2/24" style="shape=partialRectangle;html=1;whiteSpace=wrap;connectable=0;fillColor=#ffffff;strokeWidth=2;strokeOpacity=100;verticalAlign=middle;spacing=3.8;strokeColor=#3a414a;rounded=1;absoluteArcSize=1;arcSize=9;fontSize=16.7;" parent="9dSPCgguCx3j1RxGnscm-13" vertex="1">
          <mxGeometry x="132.26851851851853" y="90" width="126.62037037037038" height="30" as="geometry" />
        </mxCell>
        <mxCell id="9dSPCgguCx3j1RxGnscm-26" value="" style="shape=partialRectangle;html=1;whiteSpace=wrap;connectable=0;fillColor=#ffffff;strokeWidth=2;strokeOpacity=100;verticalAlign=middle;spacing=3.8;strokeColor=#3a414a;rounded=1;absoluteArcSize=1;arcSize=9;fontSize=13;" parent="9dSPCgguCx3j1RxGnscm-13" vertex="1">
          <mxGeometry x="258.8888888888889" y="90" width="126.62037037037038" height="30" as="geometry" />
        </mxCell>
        <mxCell id="9dSPCgguCx3j1RxGnscm-27" value="R2" style="shape=partialRectangle;html=1;whiteSpace=wrap;connectable=0;fillColor=#ffffff;strokeWidth=2;strokeOpacity=100;verticalAlign=middle;spacing=3.8;strokeColor=#3a414a;rounded=1;absoluteArcSize=1;arcSize=9;fontSize=16.7;" parent="9dSPCgguCx3j1RxGnscm-13" vertex="1">
          <mxGeometry y="120" width="60" height="30" as="geometry" />
        </mxCell>
        <mxCell id="9dSPCgguCx3j1RxGnscm-28" value="Eth1" style="shape=partialRectangle;html=1;whiteSpace=wrap;connectable=0;fillColor=#ffffff;strokeWidth=2;strokeOpacity=100;verticalAlign=middle;spacing=3.8;strokeColor=#3a414a;rounded=1;absoluteArcSize=1;arcSize=9;fontSize=16.7;" parent="9dSPCgguCx3j1RxGnscm-13" vertex="1">
          <mxGeometry x="60" y="120" width="72.26851851851852" height="30" as="geometry" />
        </mxCell>
        <mxCell id="9dSPCgguCx3j1RxGnscm-29" value="&lt;font style=&quot;font-size: 15px;&quot;&gt;192.168.102.1/24&lt;/font&gt;" style="shape=partialRectangle;html=1;whiteSpace=wrap;connectable=0;fillColor=#ffffff;strokeWidth=2;strokeOpacity=100;verticalAlign=middle;spacing=3.8;strokeColor=#3a414a;rounded=1;absoluteArcSize=1;arcSize=9;fontSize=16.7;" parent="9dSPCgguCx3j1RxGnscm-13" vertex="1">
          <mxGeometry x="132.26851851851853" y="120" width="126.62037037037038" height="30" as="geometry" />
        </mxCell>
        <mxCell id="9dSPCgguCx3j1RxGnscm-30" value="DHCP Server" style="shape=partialRectangle;html=1;whiteSpace=wrap;connectable=0;fillColor=#ffffff;strokeWidth=2;strokeOpacity=100;verticalAlign=middle;spacing=3.8;strokeColor=#3a414a;rounded=1;absoluteArcSize=1;arcSize=9;fontSize=16.7;" parent="9dSPCgguCx3j1RxGnscm-13" vertex="1">
          <mxGeometry x="258.8888888888889" y="120" width="126.62037037037038" height="30" as="geometry" />
        </mxCell>
        <mxCell id="9dSPCgguCx3j1RxGnscm-31" value="H1" style="shape=partialRectangle;html=1;whiteSpace=wrap;connectable=0;fillColor=#ffffff;strokeWidth=2;strokeOpacity=100;verticalAlign=middle;spacing=3.8;strokeColor=#3a414a;rounded=1;absoluteArcSize=1;arcSize=9;fontSize=16.7;" parent="9dSPCgguCx3j1RxGnscm-13" vertex="1">
          <mxGeometry y="150" width="60" height="30" as="geometry" />
        </mxCell>
        <mxCell id="9dSPCgguCx3j1RxGnscm-32" value="Eth1" style="shape=partialRectangle;html=1;whiteSpace=wrap;connectable=0;fillColor=#ffffff;strokeWidth=2;strokeOpacity=100;verticalAlign=middle;spacing=3.8;strokeColor=#3a414a;rounded=1;absoluteArcSize=1;arcSize=9;fontSize=16.7;" parent="9dSPCgguCx3j1RxGnscm-13" vertex="1">
          <mxGeometry x="60" y="150" width="72.26851851851852" height="30" as="geometry" />
        </mxCell>
        <mxCell id="9dSPCgguCx3j1RxGnscm-33" value="192.168.102.X" style="shape=partialRectangle;html=1;whiteSpace=wrap;connectable=0;fillColor=#ffffff;strokeWidth=2;strokeOpacity=100;verticalAlign=middle;spacing=3.8;strokeColor=#3a414a;rounded=1;absoluteArcSize=1;arcSize=9;fontSize=16.7;" parent="9dSPCgguCx3j1RxGnscm-13" vertex="1">
          <mxGeometry x="132.26851851851853" y="150" width="126.62037037037038" height="30" as="geometry" />
        </mxCell>
        <mxCell id="9dSPCgguCx3j1RxGnscm-34" value="DHCP Client" style="shape=partialRectangle;html=1;whiteSpace=wrap;connectable=0;fillColor=#ffffff;strokeWidth=2;strokeOpacity=100;verticalAlign=middle;spacing=3.8;strokeColor=#3a414a;rounded=1;absoluteArcSize=1;arcSize=9;fontSize=16.7;" parent="9dSPCgguCx3j1RxGnscm-13" vertex="1">
          <mxGeometry x="258.8888888888889" y="150" width="126.62037037037038" height="30" as="geometry" />
        </mxCell>
        <mxCell id="9dSPCgguCx3j1RxGnscm-35" value="192.168.102.0/24" style="html=1;overflow=block;blockSpacing=1;whiteSpace=wrap;shape=cylinder3;direction=south;size=10;anchorPointDirection=0;boundedLbl=1;fontSize=16.7;spacing=3.8;strokeColor=#3a414a;strokeOpacity=100;fillOpacity=100;rounded=1;absoluteArcSize=1;arcSize=9;fillColor=#ffffff;strokeWidth=1.5;lucidId=ZJURGm3RNnhG;" parent="1" vertex="1">
          <mxGeometry x="660" y="451" width="195" height="45" as="geometry" />
        </mxCell>
        <mxCell id="9dSPCgguCx3j1RxGnscm-36" value="" style="html=1;jettySize=18;whiteSpace=wrap;fontSize=13;strokeColor=#3a414a;strokeOpacity=100;strokeWidth=0.8;rounded=1;arcSize=12;edgeStyle=orthogonalEdgeStyle;startArrow=none;endArrow=none;exitX=0;exitY=0.5;exitPerimeter=0;entryX=1.004;entryY=0.5;entryPerimeter=0;lucidId=~JURISX_sIDZ;" parent="1" source="9dSPCgguCx3j1RxGnscm-10" target="9dSPCgguCx3j1RxGnscm-35" edge="1">
          <mxGeometry width="100" height="100" relative="1" as="geometry">
            <Array as="points" />
          </mxGeometry>
        </mxCell>
        <mxCell id="9dSPCgguCx3j1RxGnscm-37" value="Eth1" style="text;html=1;resizable=0;labelBackgroundColor=default;align=center;verticalAlign=middle;fontStyle=1;fontColor=#333333;fontSize=13.3;" parent="9dSPCgguCx3j1RxGnscm-36" vertex="1">
          <mxGeometry x="-0.7957890636767055" relative="1" as="geometry">
            <mxPoint x="-25" y="-14" as="offset" />
          </mxGeometry>
        </mxCell>
        <mxCell id="9dSPCgguCx3j1RxGnscm-38" value="" style="html=1;jettySize=18;whiteSpace=wrap;fontSize=13;strokeColor=#3a414a;strokeOpacity=100;strokeWidth=0.8;rounded=1;arcSize=12;edgeStyle=orthogonalEdgeStyle;startArrow=none;endArrow=none;exitX=0.5;exitY=0;exitPerimeter=0;entryX=0.502;entryY=1.017;entryPerimeter=0;lucidId=9KURpmgzEh4C;" parent="1" source="9dSPCgguCx3j1RxGnscm-3" target="9dSPCgguCx3j1RxGnscm-35" edge="1">
          <mxGeometry width="100" height="100" relative="1" as="geometry">
            <Array as="points" />
          </mxGeometry>
        </mxCell>
        <mxCell id="9dSPCgguCx3j1RxGnscm-39" value="Eth1" style="text;html=1;resizable=0;labelBackgroundColor=default;align=center;verticalAlign=middle;fontStyle=1;fontColor=#333333;fontSize=13.3;" parent="9dSPCgguCx3j1RxGnscm-38" vertex="1">
          <mxGeometry x="-0.736300605790225" relative="1" as="geometry">
            <mxPoint as="offset" />
          </mxGeometry>
        </mxCell>
        <mxCell id="9dSPCgguCx3j1RxGnscm-40" value="R1" style="html=1;overflow=block;blockSpacing=1;whiteSpace=wrap;shape=mxgraph.cisco.routers.router;verticalLabelPosition=bottom;verticalAlign=top;fillColor=#036897;strokeColor=#ffffff;fontSize=13.3;fontColor=#333333;spacing=0;strokeOpacity=100;fillOpacity=100;strokeWidth=1.5;lucidId=fNURm3JqRkwI;" parent="1" vertex="1">
          <mxGeometry x="1665" y="430" width="106" height="87" as="geometry" />
        </mxCell>
        <mxCell id="9dSPCgguCx3j1RxGnscm-41" value="" style="html=1;jettySize=18;whiteSpace=wrap;fontSize=13;strokeColor=#3a414a;strokeOpacity=100;strokeWidth=0.8;rounded=1;arcSize=12;edgeStyle=orthogonalEdgeStyle;startArrow=none;endArrow=none;exitX=1.004;exitY=0.5;exitPerimeter=0;entryX=0;entryY=0.5;entryPerimeter=0;lucidId=K-URjw45yr3c;" parent="1" source="9dSPCgguCx3j1RxGnscm-9" target="9dSPCgguCx3j1RxGnscm-40" edge="1">
          <mxGeometry width="100" height="100" relative="1" as="geometry">
            <Array as="points">
              <mxPoint x="1665" y="482" />
            </Array>
          </mxGeometry>
        </mxCell>
        <mxCell id="9dSPCgguCx3j1RxGnscm-42" value="Eth1" style="text;html=1;resizable=0;labelBackgroundColor=default;align=center;verticalAlign=middle;fontStyle=1;fontColor=#333333;fontSize=13.3;" parent="9dSPCgguCx3j1RxGnscm-41" vertex="1">
          <mxGeometry x="0.8047719898566101" relative="1" as="geometry">
            <mxPoint as="offset" />
          </mxGeometry>
        </mxCell>
        <mxCell id="9dSPCgguCx3j1RxGnscm-43" value="&amp;nbsp; H2" style="points=[[0.436,0.668,0]];html=1;overflow=block;blockSpacing=1;whiteSpace=wrap;shape=mxgraph.cisco.computers_and_peripherals.laptop;verticalLabelPosition=bottom;verticalAlign=top;fillColor=#036897;strokeColor=#ffffff;fontSize=16.7;spacing=0;strokeOpacity=100;fillOpacity=100;strokeWidth=1.5;lucidId=hdVRu6Ox6UHC;" parent="1" vertex="1">
          <mxGeometry x="1656" y="25" width="113" height="113" as="geometry" />
        </mxCell>
        <mxCell id="9dSPCgguCx3j1RxGnscm-44" value="" style="html=1;jettySize=18;whiteSpace=wrap;fontSize=13;strokeColor=#3a414a;strokeOpacity=100;strokeWidth=0.8;rounded=1;arcSize=12;edgeStyle=orthogonalEdgeStyle;startArrow=none;endArrow=none;exitX=0.5;exitY=1.017;exitPerimeter=0;entryX=0.449;entryY=0;entryPerimeter=0;lucidId=xeVRhKG0XGc9;" parent="1" source="9dSPCgguCx3j1RxGnscm-86" target="9dSPCgguCx3j1RxGnscm-40" edge="1">
          <mxGeometry width="100" height="100" relative="1" as="geometry">
            <Array as="points" />
          </mxGeometry>
        </mxCell>
        <mxCell id="9dSPCgguCx3j1RxGnscm-45" value="Eth3" style="text;html=1;resizable=0;labelBackgroundColor=default;align=center;verticalAlign=middle;fontStyle=1;fontColor=#333333;fontSize=13.3;" parent="9dSPCgguCx3j1RxGnscm-44" vertex="1">
          <mxGeometry x="0.8047719898566101" relative="1" as="geometry">
            <mxPoint as="offset" />
          </mxGeometry>
        </mxCell>
        <mxCell id="9dSPCgguCx3j1RxGnscm-46" value="132.114.28.0/24" style="html=1;overflow=block;blockSpacing=1;whiteSpace=wrap;shape=cylinder3;direction=south;size=10;anchorPointDirection=0;boundedLbl=1;fontSize=16.7;spacing=3.8;verticalAlign=middle;strokeColor=#3a414a;strokeOpacity=100;fillOpacity=100;rounded=1;absoluteArcSize=1;arcSize=9;fillColor=#ffffff;strokeWidth=1.5;lucidId=GiVRu4kat.sn;" parent="1" vertex="1">
          <mxGeometry x="1800" y="700" width="195" height="45" as="geometry" />
        </mxCell>
        <mxCell id="9dSPCgguCx3j1RxGnscm-47" value="" style="html=1;jettySize=18;whiteSpace=wrap;fontSize=13;strokeColor=#3a414a;strokeOpacity=100;strokeWidth=0.8;rounded=1;arcSize=12;edgeStyle=orthogonalEdgeStyle;startArrow=none;endArrow=none;exitX=1;exitY=0.5;exitPerimeter=0;entryX=0.5;entryY=-0.017;entryPerimeter=0;lucidId=ejVR3KXCib64;" parent="1" source="9dSPCgguCx3j1RxGnscm-40" target="9dSPCgguCx3j1RxGnscm-46" edge="1">
          <mxGeometry width="100" height="100" relative="1" as="geometry">
            <Array as="points" />
          </mxGeometry>
        </mxCell>
        <mxCell id="9dSPCgguCx3j1RxGnscm-48" value="Eth2" style="text;html=1;resizable=0;labelBackgroundColor=default;align=center;verticalAlign=middle;fontStyle=1;fontColor=#333333;fontSize=13.3;" parent="9dSPCgguCx3j1RxGnscm-47" vertex="1">
          <mxGeometry x="-0.8300698389086958" relative="1" as="geometry">
            <mxPoint as="offset" />
          </mxGeometry>
        </mxCell>
        <mxCell id="9dSPCgguCx3j1RxGnscm-49" value="R20" style="html=1;overflow=block;blockSpacing=1;whiteSpace=wrap;shape=mxgraph.cisco.routers.router;verticalLabelPosition=bottom;verticalAlign=top;fillColor=#036897;strokeColor=#ffffff;fontSize=13.3;fontColor=#333333;spacing=0;strokeOpacity=100;fillOpacity=100;strokeWidth=1.5;lucidId=BmVRaE0Tv0t1;" parent="1" vertex="1">
          <mxGeometry x="1845" y="1077" width="106" height="87" as="geometry" />
        </mxCell>
        <mxCell id="9dSPCgguCx3j1RxGnscm-50" value="" style="html=1;jettySize=18;whiteSpace=wrap;fontSize=13;strokeColor=#3a414a;strokeOpacity=100;strokeWidth=0.8;rounded=1;arcSize=12;edgeStyle=orthogonalEdgeStyle;startArrow=none;endArrow=none;exitX=0.5;exitY=1.017;exitPerimeter=0;entryX=0.496;entryY=0;entryPerimeter=0;lucidId=LmVRJoTTz-6b;" parent="1" source="9dSPCgguCx3j1RxGnscm-46" target="9dSPCgguCx3j1RxGnscm-49" edge="1">
          <mxGeometry width="100" height="100" relative="1" as="geometry">
            <Array as="points" />
          </mxGeometry>
        </mxCell>
        <mxCell id="9dSPCgguCx3j1RxGnscm-51" value="Eth1" style="text;html=1;resizable=0;labelBackgroundColor=default;align=center;verticalAlign=middle;fontStyle=1;fontColor=#333333;fontSize=13.3;" parent="9dSPCgguCx3j1RxGnscm-50" vertex="1">
          <mxGeometry x="0.8047719898566101" relative="1" as="geometry">
            <mxPoint as="offset" />
          </mxGeometry>
        </mxCell>
        <mxCell id="9dSPCgguCx3j1RxGnscm-52" value="133.114.28.0/24" style="html=1;overflow=block;blockSpacing=1;whiteSpace=wrap;shape=cylinder3;direction=south;size=10;anchorPointDirection=0;boundedLbl=1;fontSize=16.7;spacing=3.8;verticalAlign=middle;strokeColor=#3a414a;strokeOpacity=100;fillOpacity=100;rounded=1;absoluteArcSize=1;arcSize=9;fillColor=#ffffff;strokeWidth=1.5;lucidId=xoVR4ob_kkQF;" parent="1" vertex="1">
          <mxGeometry x="1305" y="1105" width="195" height="45" as="geometry" />
        </mxCell>
        <mxCell id="9dSPCgguCx3j1RxGnscm-53" value="&lt;div style=&quot;display: flex; justify-content: center; text-align: center; align-items: baseline; font-size: 0; line-height: 1.25;margin-top: -2px;&quot;&gt;&lt;span&gt;&lt;span style=&quot;font-size:16.7px;&quot;&gt;134.114.28.0/2&lt;/span&gt;&lt;span style=&quot;font-size:16.7px;&quot;&gt;4&lt;/span&gt;&lt;/span&gt;&lt;/div&gt;" style="html=1;overflow=block;blockSpacing=1;whiteSpace=wrap;shape=cylinder3;direction=south;size=10;anchorPointDirection=0;boundedLbl=1;fontSize=13;spacing=3.8;verticalAlign=middle;strokeColor=#3a414a;strokeOpacity=100;fillOpacity=100;rounded=1;absoluteArcSize=1;arcSize=9;fillColor=#ffffff;strokeWidth=1.5;lucidId=FoVR7f1Ml3q-;" parent="1" vertex="1">
          <mxGeometry x="900" y="775" width="195" height="45" as="geometry" />
        </mxCell>
        <mxCell id="9dSPCgguCx3j1RxGnscm-54" value="R10" style="html=1;overflow=block;blockSpacing=1;whiteSpace=wrap;shape=mxgraph.cisco.routers.router;verticalLabelPosition=bottom;verticalAlign=top;fillColor=#036897;strokeColor=#ffffff;fontSize=18.3;fontFamily=Liberation Serif;fontColor=#333333;spacing=0;strokeOpacity=100;fillOpacity=100;strokeWidth=1.5;lucidId=XoVRWnAyFVmB;" parent="1" vertex="1">
          <mxGeometry x="945" y="1089" width="106" height="87" as="geometry" />
        </mxCell>
        <mxCell id="9dSPCgguCx3j1RxGnscm-55" value="" style="html=1;jettySize=18;whiteSpace=wrap;fontSize=13;strokeColor=#3a414a;strokeOpacity=100;strokeWidth=0.8;rounded=1;arcSize=12;edgeStyle=orthogonalEdgeStyle;startArrow=none;endArrow=none;exitX=1;exitY=0.441;exitPerimeter=0;entryX=0.002;entryY=0.667;entryPerimeter=0;lucidId=9qVRlUqPD2rC;" parent="1" edge="1">
          <mxGeometry width="100" height="100" relative="1" as="geometry">
            <Array as="points">
              <mxPoint x="1179" y="1129" />
              <mxPoint x="1305" y="1130" />
            </Array>
            <mxPoint x="1051" y="1129.3670000000002" as="sourcePoint" />
            <mxPoint x="1305.3899999999999" y="1137.0149999999999" as="targetPoint" />
          </mxGeometry>
        </mxCell>
        <mxCell id="9dSPCgguCx3j1RxGnscm-56" value="Eth1" style="text;html=1;resizable=0;labelBackgroundColor=default;align=center;verticalAlign=middle;fontStyle=1;fontColor=#333333;fontSize=13.3;" parent="9dSPCgguCx3j1RxGnscm-55" vertex="1">
          <mxGeometry x="-0.6684978784078712" relative="1" as="geometry">
            <mxPoint as="offset" />
          </mxGeometry>
        </mxCell>
        <mxCell id="9dSPCgguCx3j1RxGnscm-57" value="" style="html=1;jettySize=18;whiteSpace=wrap;fontSize=13;strokeColor=#3a414a;strokeOpacity=100;strokeWidth=0.8;rounded=1;arcSize=12;edgeStyle=orthogonalEdgeStyle;startArrow=none;endArrow=none;exitX=0.5;exitY=0.853;exitPerimeter=0;entryX=0.5;entryY=-0.017;entryPerimeter=0;lucidId=TrVRvyweUizG;" parent="1" source="9dSPCgguCx3j1RxGnscm-10" target="9dSPCgguCx3j1RxGnscm-53" edge="1">
          <mxGeometry width="100" height="100" relative="1" as="geometry">
            <Array as="points" />
          </mxGeometry>
        </mxCell>
        <mxCell id="9dSPCgguCx3j1RxGnscm-58" value="Eth3" style="text;html=1;resizable=0;labelBackgroundColor=default;align=center;verticalAlign=middle;fontStyle=1;fontColor=#333333;fontSize=13.3;" parent="9dSPCgguCx3j1RxGnscm-57" vertex="1">
          <mxGeometry x="-0.737842480817551" relative="1" as="geometry">
            <mxPoint x="22" y="10" as="offset" />
          </mxGeometry>
        </mxCell>
        <mxCell id="9dSPCgguCx3j1RxGnscm-59" value="" style="html=1;jettySize=18;whiteSpace=wrap;fontSize=13;strokeColor=#3a414a;strokeOpacity=100;strokeWidth=0.8;rounded=1;arcSize=12;edgeStyle=orthogonalEdgeStyle;startArrow=none;endArrow=none;exitX=0.5;exitY=1.017;exitPerimeter=0;entryX=0.5;entryY=0;entryPerimeter=0;lucidId=rsVROlJWqAWO;" parent="1" source="9dSPCgguCx3j1RxGnscm-53" target="9dSPCgguCx3j1RxGnscm-54" edge="1">
          <mxGeometry width="100" height="100" relative="1" as="geometry">
            <Array as="points" />
          </mxGeometry>
        </mxCell>
        <mxCell id="9dSPCgguCx3j1RxGnscm-60" value="Eth2" style="text;html=1;resizable=0;labelBackgroundColor=default;align=center;verticalAlign=middle;fontStyle=1;fontColor=#333333;fontSize=13.3;" parent="9dSPCgguCx3j1RxGnscm-59" vertex="1">
          <mxGeometry x="1" relative="1" as="geometry">
            <mxPoint x="32" y="-12" as="offset" />
          </mxGeometry>
        </mxCell>
        <mxCell id="9dSPCgguCx3j1RxGnscm-61" value="H3" style="points=[[0.144,0.395,0]];html=1;overflow=block;blockSpacing=1;whiteSpace=wrap;shape=mxgraph.cisco.computers_and_peripherals.laptop;verticalLabelPosition=bottom;verticalAlign=top;fillColor=#036897;strokeColor=#ffffff;fontSize=16.7;spacing=0;strokeOpacity=100;fillOpacity=100;strokeWidth=1.5;lucidId=2tVRI_BQHP-n;" parent="1" vertex="1">
          <mxGeometry x="2430" y="1077" width="113" height="113" as="geometry" />
        </mxCell>
        <mxCell id="9dSPCgguCx3j1RxGnscm-62" value="" style="html=1;jettySize=18;whiteSpace=wrap;fontSize=13;strokeColor=#3a414a;strokeOpacity=100;strokeWidth=0.8;rounded=1;arcSize=12;edgeStyle=orthogonalEdgeStyle;startArrow=none;endArrow=none;exitX=-0.004;exitY=0.5;exitPerimeter=0;entryX=1;entryY=0.5;entryPerimeter=0;lucidId=~tVRQu~.viIO;" parent="1" source="9dSPCgguCx3j1RxGnscm-111" target="9dSPCgguCx3j1RxGnscm-49" edge="1">
          <mxGeometry width="100" height="100" relative="1" as="geometry">
            <Array as="points">
              <mxPoint x="2129" y="1121" />
              <mxPoint x="2050" y="1121" />
            </Array>
          </mxGeometry>
        </mxCell>
        <mxCell id="9dSPCgguCx3j1RxGnscm-63" value="Eth3" style="text;html=1;resizable=0;labelBackgroundColor=default;align=center;verticalAlign=middle;fontStyle=1;fontColor=#333333;fontSize=13.3;" parent="9dSPCgguCx3j1RxGnscm-62" vertex="1">
          <mxGeometry x="0.8047719898566101" relative="1" as="geometry">
            <mxPoint as="offset" />
          </mxGeometry>
        </mxCell>
        <mxCell id="9dSPCgguCx3j1RxGnscm-64" value="" style="group;dropTarget=0;pointerEvents=0;html=1;" parent="1" vertex="1">
          <mxGeometry x="2030" y="150" width="386" height="180" as="geometry" />
        </mxCell>
        <mxCell id="9dSPCgguCx3j1RxGnscm-65" value="AS 55001" style="shape=partialRectangle;html=1;whiteSpace=wrap;connectable=0;fillColor=#ffffff;strokeWidth=2;strokeOpacity=100;verticalAlign=middle;spacing=3.8;strokeColor=#3a414a;rounded=1;absoluteArcSize=1;arcSize=9;fontSize=16.7;fontStyle=1;" parent="9dSPCgguCx3j1RxGnscm-64" vertex="1">
          <mxGeometry width="385.5092592592593" height="30" as="geometry" />
        </mxCell>
        <mxCell id="9dSPCgguCx3j1RxGnscm-66" value="Device" style="shape=partialRectangle;html=1;whiteSpace=wrap;connectable=0;fillColor=#ffffff;strokeWidth=2;strokeOpacity=100;verticalAlign=middle;spacing=3.8;strokeColor=#3a414a;rounded=1;absoluteArcSize=1;arcSize=9;fontSize=16.7;fontStyle=1;" parent="9dSPCgguCx3j1RxGnscm-64" vertex="1">
          <mxGeometry y="30" width="60" height="30" as="geometry" />
        </mxCell>
        <mxCell id="9dSPCgguCx3j1RxGnscm-67" value="Interface" style="shape=partialRectangle;html=1;whiteSpace=wrap;connectable=0;fillColor=#ffffff;strokeWidth=2;strokeOpacity=100;verticalAlign=middle;spacing=3.8;strokeColor=#3a414a;rounded=1;absoluteArcSize=1;arcSize=9;fontSize=16.7;fontStyle=1;" parent="9dSPCgguCx3j1RxGnscm-64" vertex="1">
          <mxGeometry x="60" y="30" width="72.26851851851852" height="30" as="geometry" />
        </mxCell>
        <mxCell id="9dSPCgguCx3j1RxGnscm-68" value="Address" style="shape=partialRectangle;html=1;whiteSpace=wrap;connectable=0;fillColor=#ffffff;strokeWidth=2;strokeOpacity=100;verticalAlign=middle;spacing=3.8;strokeColor=#3a414a;rounded=1;absoluteArcSize=1;arcSize=9;fontSize=16.7;fontStyle=1;" parent="9dSPCgguCx3j1RxGnscm-64" vertex="1">
          <mxGeometry x="132.26851851851853" y="30" width="126.62037037037038" height="30" as="geometry" />
        </mxCell>
        <mxCell id="9dSPCgguCx3j1RxGnscm-69" value="Notes" style="shape=partialRectangle;html=1;whiteSpace=wrap;connectable=0;fillColor=#ffffff;strokeWidth=2;strokeOpacity=100;verticalAlign=middle;spacing=3.8;strokeColor=#3a414a;rounded=1;absoluteArcSize=1;arcSize=9;fontSize=16.7;fontStyle=1;" parent="9dSPCgguCx3j1RxGnscm-64" vertex="1">
          <mxGeometry x="258.8888888888889" y="30" width="126.62037037037038" height="30" as="geometry" />
        </mxCell>
        <mxCell id="9dSPCgguCx3j1RxGnscm-70" value="R1" style="shape=partialRectangle;html=1;whiteSpace=wrap;connectable=0;fillColor=#ffffff;strokeWidth=2;strokeOpacity=100;verticalAlign=middle;spacing=3.8;strokeColor=#3a414a;rounded=1;absoluteArcSize=1;arcSize=9;fontSize=16.7;" parent="9dSPCgguCx3j1RxGnscm-64" vertex="1">
          <mxGeometry y="60" width="60" height="30" as="geometry" />
        </mxCell>
        <mxCell id="9dSPCgguCx3j1RxGnscm-71" value="Eth2" style="shape=partialRectangle;html=1;whiteSpace=wrap;connectable=0;fillColor=#ffffff;strokeWidth=2;strokeOpacity=100;verticalAlign=middle;spacing=3.8;strokeColor=#3a414a;rounded=1;absoluteArcSize=1;arcSize=9;fontSize=16.7;" parent="9dSPCgguCx3j1RxGnscm-64" vertex="1">
          <mxGeometry x="60" y="60" width="72.26851851851852" height="30" as="geometry" />
        </mxCell>
        <mxCell id="9dSPCgguCx3j1RxGnscm-72" value="132.114.28.2/24" style="shape=partialRectangle;html=1;whiteSpace=wrap;connectable=0;fillColor=#ffffff;strokeWidth=2;strokeOpacity=100;verticalAlign=middle;spacing=3.8;strokeColor=#3a414a;rounded=1;absoluteArcSize=1;arcSize=9;fontSize=16.7;" parent="9dSPCgguCx3j1RxGnscm-64" vertex="1">
          <mxGeometry x="132.26851851851853" y="60" width="126.62037037037038" height="30" as="geometry" />
        </mxCell>
        <mxCell id="9dSPCgguCx3j1RxGnscm-73" value="" style="shape=partialRectangle;html=1;whiteSpace=wrap;connectable=0;fillColor=#ffffff;strokeWidth=2;strokeOpacity=100;verticalAlign=middle;spacing=3.8;strokeColor=#3a414a;rounded=1;absoluteArcSize=1;arcSize=9;fontSize=13;" parent="9dSPCgguCx3j1RxGnscm-64" vertex="1">
          <mxGeometry x="258.8888888888889" y="60" width="126.62037037037038" height="30" as="geometry" />
        </mxCell>
        <mxCell id="9dSPCgguCx3j1RxGnscm-74" value="R1" style="shape=partialRectangle;html=1;whiteSpace=wrap;connectable=0;fillColor=#ffffff;strokeWidth=2;strokeOpacity=100;verticalAlign=middle;spacing=3.8;strokeColor=#3a414a;rounded=1;absoluteArcSize=1;arcSize=9;fontSize=16.7;" parent="9dSPCgguCx3j1RxGnscm-64" vertex="1">
          <mxGeometry y="90" width="60" height="30" as="geometry" />
        </mxCell>
        <mxCell id="9dSPCgguCx3j1RxGnscm-75" value="Eth1" style="shape=partialRectangle;html=1;whiteSpace=wrap;connectable=0;fillColor=#ffffff;strokeWidth=2;strokeOpacity=100;verticalAlign=middle;spacing=3.8;strokeColor=#3a414a;rounded=1;absoluteArcSize=1;arcSize=9;fontSize=16.7;" parent="9dSPCgguCx3j1RxGnscm-64" vertex="1">
          <mxGeometry x="60" y="90" width="72.26851851851852" height="30" as="geometry" />
        </mxCell>
        <mxCell id="9dSPCgguCx3j1RxGnscm-76" value="131.114.28.1/24" style="shape=partialRectangle;html=1;whiteSpace=wrap;connectable=0;fillColor=#ffffff;strokeWidth=2;strokeOpacity=100;verticalAlign=middle;spacing=3.8;strokeColor=#3a414a;rounded=1;absoluteArcSize=1;arcSize=9;fontSize=16.7;" parent="9dSPCgguCx3j1RxGnscm-64" vertex="1">
          <mxGeometry x="132.26851851851853" y="90" width="126.62037037037038" height="30" as="geometry" />
        </mxCell>
        <mxCell id="9dSPCgguCx3j1RxGnscm-77" value="" style="shape=partialRectangle;html=1;whiteSpace=wrap;connectable=0;fillColor=#ffffff;strokeWidth=2;strokeOpacity=100;verticalAlign=middle;spacing=3.8;strokeColor=#3a414a;rounded=1;absoluteArcSize=1;arcSize=9;fontSize=13;" parent="9dSPCgguCx3j1RxGnscm-64" vertex="1">
          <mxGeometry x="258.8888888888889" y="90" width="126.62037037037038" height="30" as="geometry" />
        </mxCell>
        <mxCell id="9dSPCgguCx3j1RxGnscm-78" value="R1" style="shape=partialRectangle;html=1;whiteSpace=wrap;connectable=0;fillColor=#ffffff;strokeWidth=2;strokeOpacity=100;verticalAlign=middle;spacing=3.8;strokeColor=#3a414a;rounded=1;absoluteArcSize=1;arcSize=9;fontSize=16.7;" parent="9dSPCgguCx3j1RxGnscm-64" vertex="1">
          <mxGeometry y="120" width="60" height="30" as="geometry" />
        </mxCell>
        <mxCell id="9dSPCgguCx3j1RxGnscm-79" value="Eth3" style="shape=partialRectangle;html=1;whiteSpace=wrap;connectable=0;fillColor=#ffffff;strokeWidth=2;strokeOpacity=100;verticalAlign=middle;spacing=3.8;strokeColor=#3a414a;rounded=1;absoluteArcSize=1;arcSize=9;fontSize=16.7;" parent="9dSPCgguCx3j1RxGnscm-64" vertex="1">
          <mxGeometry x="60" y="120" width="72.26851851851852" height="30" as="geometry" />
        </mxCell>
        <mxCell id="9dSPCgguCx3j1RxGnscm-80" value="&lt;font style=&quot;font-size: 15px;&quot;&gt;192.168.101.1/24&lt;/font&gt;" style="shape=partialRectangle;html=1;whiteSpace=wrap;connectable=0;fillColor=#ffffff;strokeWidth=2;strokeOpacity=100;verticalAlign=middle;spacing=3.8;strokeColor=#3a414a;rounded=1;absoluteArcSize=1;arcSize=9;fontSize=16.7;" parent="9dSPCgguCx3j1RxGnscm-64" vertex="1">
          <mxGeometry x="132.26851851851853" y="120" width="126.62037037037038" height="30" as="geometry" />
        </mxCell>
        <mxCell id="9dSPCgguCx3j1RxGnscm-81" value="DHCP Server" style="shape=partialRectangle;html=1;whiteSpace=wrap;connectable=0;fillColor=#ffffff;strokeWidth=2;strokeOpacity=100;verticalAlign=middle;spacing=3.8;strokeColor=#3a414a;rounded=1;absoluteArcSize=1;arcSize=9;fontSize=16.7;" parent="9dSPCgguCx3j1RxGnscm-64" vertex="1">
          <mxGeometry x="258.8888888888889" y="120" width="126.62037037037038" height="30" as="geometry" />
        </mxCell>
        <mxCell id="9dSPCgguCx3j1RxGnscm-82" value="H2" style="shape=partialRectangle;html=1;whiteSpace=wrap;connectable=0;fillColor=#ffffff;strokeWidth=2;strokeOpacity=100;verticalAlign=middle;spacing=3.8;strokeColor=#3a414a;rounded=1;absoluteArcSize=1;arcSize=9;fontSize=16.7;" parent="9dSPCgguCx3j1RxGnscm-64" vertex="1">
          <mxGeometry y="150" width="60" height="30" as="geometry" />
        </mxCell>
        <mxCell id="9dSPCgguCx3j1RxGnscm-83" value="Eth1" style="shape=partialRectangle;html=1;whiteSpace=wrap;connectable=0;fillColor=#ffffff;strokeWidth=2;strokeOpacity=100;verticalAlign=middle;spacing=3.8;strokeColor=#3a414a;rounded=1;absoluteArcSize=1;arcSize=9;fontSize=16.7;" parent="9dSPCgguCx3j1RxGnscm-64" vertex="1">
          <mxGeometry x="60" y="150" width="72.26851851851852" height="30" as="geometry" />
        </mxCell>
        <mxCell id="9dSPCgguCx3j1RxGnscm-84" value="192.168.101.X" style="shape=partialRectangle;html=1;whiteSpace=wrap;connectable=0;fillColor=#ffffff;strokeWidth=2;strokeOpacity=100;verticalAlign=middle;spacing=3.8;strokeColor=#3a414a;rounded=1;absoluteArcSize=1;arcSize=9;fontSize=16.7;" parent="9dSPCgguCx3j1RxGnscm-64" vertex="1">
          <mxGeometry x="132.26851851851853" y="150" width="126.62037037037038" height="30" as="geometry" />
        </mxCell>
        <mxCell id="9dSPCgguCx3j1RxGnscm-85" value="DHCP Client" style="shape=partialRectangle;html=1;whiteSpace=wrap;connectable=0;fillColor=#ffffff;strokeWidth=2;strokeOpacity=100;verticalAlign=middle;spacing=3.8;strokeColor=#3a414a;rounded=1;absoluteArcSize=1;arcSize=9;fontSize=16.7;" parent="9dSPCgguCx3j1RxGnscm-64" vertex="1">
          <mxGeometry x="258.8888888888889" y="150" width="126.62037037037038" height="30" as="geometry" />
        </mxCell>
        <mxCell id="9dSPCgguCx3j1RxGnscm-86" value="192.168.101.0/24" style="html=1;overflow=block;blockSpacing=1;whiteSpace=wrap;shape=cylinder3;direction=south;size=10;anchorPointDirection=0;boundedLbl=1;fontSize=16.7;spacing=3.8;verticalAlign=middle;strokeColor=#3a414a;strokeOpacity=100;fillOpacity=100;rounded=1;absoluteArcSize=1;arcSize=9;fillColor=#ffffff;strokeWidth=1.5;lucidId=_vVRPWT._KSi;" parent="1" vertex="1">
          <mxGeometry x="1615" y="232" width="195" height="45" as="geometry" />
        </mxCell>
        <mxCell id="9dSPCgguCx3j1RxGnscm-87" value="" style="html=1;jettySize=18;whiteSpace=wrap;fontSize=13;strokeColor=#3a414a;strokeOpacity=100;strokeWidth=0.8;rounded=1;arcSize=12;edgeStyle=orthogonalEdgeStyle;startArrow=none;endArrow=none;entryX=0.463;entryY=-0.017;entryPerimeter=0;lucidId=twVR64xRB9IR;" parent="1" target="9dSPCgguCx3j1RxGnscm-86" edge="1">
          <mxGeometry width="100" height="100" relative="1" as="geometry">
            <Array as="points" />
            <mxPoint x="1705" y="140" as="sourcePoint" />
          </mxGeometry>
        </mxCell>
        <mxCell id="9dSPCgguCx3j1RxGnscm-88" value="Eth1" style="text;html=1;resizable=0;labelBackgroundColor=default;align=center;verticalAlign=middle;fontStyle=1;fontColor=#333333;fontSize=13.3;" parent="9dSPCgguCx3j1RxGnscm-87" vertex="1">
          <mxGeometry x="-0.6205041924447532" relative="1" as="geometry">
            <mxPoint x="-25" y="34" as="offset" />
          </mxGeometry>
        </mxCell>
        <mxCell id="9dSPCgguCx3j1RxGnscm-89" value="" style="group;dropTarget=0;pointerEvents=0;html=1;" parent="1" vertex="1">
          <mxGeometry x="1710" y="1270" width="386" height="197" as="geometry" />
        </mxCell>
        <mxCell id="9dSPCgguCx3j1RxGnscm-90" value="AS 54020" style="shape=partialRectangle;html=1;whiteSpace=wrap;connectable=0;fillColor=#ffffff;strokeWidth=2;strokeOpacity=100;verticalAlign=middle;spacing=3.8;strokeColor=#3a414a;rounded=1;absoluteArcSize=1;arcSize=9;fontSize=16.7;fontStyle=1;" parent="9dSPCgguCx3j1RxGnscm-89" vertex="1">
          <mxGeometry width="385.5092592592593" height="33.75" as="geometry" />
        </mxCell>
        <mxCell id="9dSPCgguCx3j1RxGnscm-91" value="Device" style="shape=partialRectangle;html=1;whiteSpace=wrap;connectable=0;fillColor=#ffffff;strokeWidth=2;strokeOpacity=100;verticalAlign=middle;spacing=3.8;strokeColor=#3a414a;rounded=1;absoluteArcSize=1;arcSize=9;fontSize=16.7;fontStyle=1;" parent="9dSPCgguCx3j1RxGnscm-89" vertex="1">
          <mxGeometry y="33.75" width="60" height="33.75" as="geometry" />
        </mxCell>
        <mxCell id="9dSPCgguCx3j1RxGnscm-92" value="Interface" style="shape=partialRectangle;html=1;whiteSpace=wrap;connectable=0;fillColor=#ffffff;strokeWidth=2;strokeOpacity=100;verticalAlign=middle;spacing=3.8;strokeColor=#3a414a;rounded=1;absoluteArcSize=1;arcSize=9;fontSize=16.7;fontStyle=1;" parent="9dSPCgguCx3j1RxGnscm-89" vertex="1">
          <mxGeometry x="60" y="33.75" width="72.26851851851852" height="33.75" as="geometry" />
        </mxCell>
        <mxCell id="9dSPCgguCx3j1RxGnscm-93" value="Address" style="shape=partialRectangle;html=1;whiteSpace=wrap;connectable=0;fillColor=#ffffff;strokeWidth=2;strokeOpacity=100;verticalAlign=middle;spacing=3.8;strokeColor=#3a414a;rounded=1;absoluteArcSize=1;arcSize=9;fontSize=16.7;fontStyle=1;" parent="9dSPCgguCx3j1RxGnscm-89" vertex="1">
          <mxGeometry x="132.26851851851853" y="33.75" width="126.62037037037038" height="33.75" as="geometry" />
        </mxCell>
        <mxCell id="9dSPCgguCx3j1RxGnscm-94" value="Notes" style="shape=partialRectangle;html=1;whiteSpace=wrap;connectable=0;fillColor=#ffffff;strokeWidth=2;strokeOpacity=100;verticalAlign=middle;spacing=3.8;strokeColor=#3a414a;rounded=1;absoluteArcSize=1;arcSize=9;fontSize=16.7;fontStyle=1;" parent="9dSPCgguCx3j1RxGnscm-89" vertex="1">
          <mxGeometry x="258.8888888888889" y="33.75" width="126.62037037037038" height="33.75" as="geometry" />
        </mxCell>
        <mxCell id="9dSPCgguCx3j1RxGnscm-95" value="R20" style="shape=partialRectangle;html=1;whiteSpace=wrap;connectable=0;fillColor=#ffffff;strokeWidth=2;strokeOpacity=100;verticalAlign=middle;spacing=3.8;strokeColor=#3a414a;rounded=1;absoluteArcSize=1;arcSize=9;fontSize=16.7;" parent="9dSPCgguCx3j1RxGnscm-89" vertex="1">
          <mxGeometry y="67.5" width="60" height="39" as="geometry" />
        </mxCell>
        <mxCell id="9dSPCgguCx3j1RxGnscm-96" value="Eth2" style="shape=partialRectangle;html=1;whiteSpace=wrap;connectable=0;fillColor=#ffffff;strokeWidth=2;strokeOpacity=100;verticalAlign=middle;spacing=3.8;strokeColor=#3a414a;rounded=1;absoluteArcSize=1;arcSize=9;fontSize=16.7;" parent="9dSPCgguCx3j1RxGnscm-89" vertex="1">
          <mxGeometry x="60" y="67.5" width="72.26851851851852" height="39" as="geometry" />
        </mxCell>
        <mxCell id="9dSPCgguCx3j1RxGnscm-97" value="133.114.28.2/24" style="shape=partialRectangle;html=1;whiteSpace=wrap;connectable=0;fillColor=#ffffff;strokeWidth=2;strokeOpacity=100;verticalAlign=middle;spacing=3.8;strokeColor=#3a414a;rounded=1;absoluteArcSize=1;arcSize=9;fontSize=16.7;" parent="9dSPCgguCx3j1RxGnscm-89" vertex="1">
          <mxGeometry x="132.26851851851853" y="67.5" width="126.62037037037038" height="39" as="geometry" />
        </mxCell>
        <mxCell id="9dSPCgguCx3j1RxGnscm-98" value="" style="shape=partialRectangle;html=1;whiteSpace=wrap;connectable=0;fillColor=#ffffff;strokeWidth=2;strokeOpacity=100;verticalAlign=middle;spacing=3.8;strokeColor=#3a414a;rounded=1;absoluteArcSize=1;arcSize=9;fontSize=13;" parent="9dSPCgguCx3j1RxGnscm-89" vertex="1">
          <mxGeometry x="258.8888888888889" y="67.5" width="126.62037037037038" height="39" as="geometry" />
        </mxCell>
        <mxCell id="9dSPCgguCx3j1RxGnscm-99" value="R20" style="shape=partialRectangle;html=1;whiteSpace=wrap;connectable=0;fillColor=#ffffff;strokeWidth=2;strokeOpacity=100;verticalAlign=middle;spacing=3.8;strokeColor=#3a414a;rounded=1;absoluteArcSize=1;arcSize=9;fontSize=16.7;" parent="9dSPCgguCx3j1RxGnscm-89" vertex="1">
          <mxGeometry y="106.5" width="60" height="30" as="geometry" />
        </mxCell>
        <mxCell id="9dSPCgguCx3j1RxGnscm-100" value="Eth1" style="shape=partialRectangle;html=1;whiteSpace=wrap;connectable=0;fillColor=#ffffff;strokeWidth=2;strokeOpacity=100;verticalAlign=middle;spacing=3.8;strokeColor=#3a414a;rounded=1;absoluteArcSize=1;arcSize=9;fontSize=16.7;" parent="9dSPCgguCx3j1RxGnscm-89" vertex="1">
          <mxGeometry x="60" y="106.5" width="72.26851851851852" height="30" as="geometry" />
        </mxCell>
        <mxCell id="9dSPCgguCx3j1RxGnscm-101" value="132.114.28.1/24" style="shape=partialRectangle;html=1;whiteSpace=wrap;connectable=0;fillColor=#ffffff;strokeWidth=2;strokeOpacity=100;verticalAlign=middle;spacing=3.8;strokeColor=#3a414a;rounded=1;absoluteArcSize=1;arcSize=9;fontSize=16.7;" parent="9dSPCgguCx3j1RxGnscm-89" vertex="1">
          <mxGeometry x="132.26851851851853" y="106.5" width="126.62037037037038" height="30" as="geometry" />
        </mxCell>
        <mxCell id="9dSPCgguCx3j1RxGnscm-102" value="" style="shape=partialRectangle;html=1;whiteSpace=wrap;connectable=0;fillColor=#ffffff;strokeWidth=2;strokeOpacity=100;verticalAlign=middle;spacing=3.8;strokeColor=#3a414a;rounded=1;absoluteArcSize=1;arcSize=9;fontSize=13;" parent="9dSPCgguCx3j1RxGnscm-89" vertex="1">
          <mxGeometry x="258.8888888888889" y="106.5" width="126.62037037037038" height="30" as="geometry" />
        </mxCell>
        <mxCell id="9dSPCgguCx3j1RxGnscm-103" value="R20" style="shape=partialRectangle;html=1;whiteSpace=wrap;connectable=0;fillColor=#ffffff;strokeWidth=2;strokeOpacity=100;verticalAlign=middle;spacing=3.8;strokeColor=#3a414a;rounded=1;absoluteArcSize=1;arcSize=9;fontSize=16.7;" parent="9dSPCgguCx3j1RxGnscm-89" vertex="1">
          <mxGeometry y="136.5" width="60" height="30" as="geometry" />
        </mxCell>
        <mxCell id="9dSPCgguCx3j1RxGnscm-104" value="Eth3" style="shape=partialRectangle;html=1;whiteSpace=wrap;connectable=0;fillColor=#ffffff;strokeWidth=2;strokeOpacity=100;verticalAlign=middle;spacing=3.8;strokeColor=#3a414a;rounded=1;absoluteArcSize=1;arcSize=9;fontSize=16.7;" parent="9dSPCgguCx3j1RxGnscm-89" vertex="1">
          <mxGeometry x="60" y="136.5" width="72.26851851851852" height="30" as="geometry" />
        </mxCell>
        <mxCell id="9dSPCgguCx3j1RxGnscm-105" value="&lt;font style=&quot;font-size: 15px;&quot;&gt;192.168.120.1/24&lt;/font&gt;" style="shape=partialRectangle;html=1;whiteSpace=wrap;connectable=0;fillColor=#ffffff;strokeWidth=2;strokeOpacity=100;verticalAlign=middle;spacing=3.8;strokeColor=#3a414a;rounded=1;absoluteArcSize=1;arcSize=9;fontSize=16.7;" parent="9dSPCgguCx3j1RxGnscm-89" vertex="1">
          <mxGeometry x="132.26851851851853" y="136.5" width="126.62037037037038" height="30" as="geometry" />
        </mxCell>
        <mxCell id="9dSPCgguCx3j1RxGnscm-106" value="DHCP Server" style="shape=partialRectangle;html=1;whiteSpace=wrap;connectable=0;fillColor=#ffffff;strokeWidth=2;strokeOpacity=100;verticalAlign=middle;spacing=3.8;strokeColor=#3a414a;rounded=1;absoluteArcSize=1;arcSize=9;fontSize=16.7;" parent="9dSPCgguCx3j1RxGnscm-89" vertex="1">
          <mxGeometry x="258.8888888888889" y="136.5" width="126.62037037037038" height="30" as="geometry" />
        </mxCell>
        <mxCell id="9dSPCgguCx3j1RxGnscm-111" value="192.168.120.0/24" style="html=1;overflow=block;blockSpacing=1;whiteSpace=wrap;shape=cylinder3;direction=south;size=10;anchorPointDirection=0;boundedLbl=1;fontSize=16.7;spacing=3.8;verticalAlign=middle;strokeColor=#3a414a;strokeOpacity=100;fillOpacity=100;rounded=1;absoluteArcSize=1;arcSize=9;fillColor=#ffffff;strokeWidth=1.5;lucidId=MBVRke0z_Mwp;" parent="1" vertex="1">
          <mxGeometry x="2130" y="1105" width="195" height="45" as="geometry" />
        </mxCell>
        <mxCell id="9dSPCgguCx3j1RxGnscm-112" value="" style="html=1;jettySize=18;whiteSpace=wrap;fontSize=13;strokeColor=#3a414a;strokeOpacity=100;strokeWidth=0.8;rounded=1;arcSize=12;edgeStyle=orthogonalEdgeStyle;startArrow=none;endArrow=none;exitX=1.004;exitY=0.5;exitPerimeter=0;entryX=0.144;entryY=0.395;entryPerimeter=0;lucidId=cCVRxtD34P-7;" parent="1" source="9dSPCgguCx3j1RxGnscm-111" target="9dSPCgguCx3j1RxGnscm-61" edge="1">
          <mxGeometry width="100" height="100" relative="1" as="geometry">
            <Array as="points">
              <mxPoint x="2378" y="1128" />
              <mxPoint x="2446" y="1128" />
            </Array>
          </mxGeometry>
        </mxCell>
        <mxCell id="9dSPCgguCx3j1RxGnscm-113" value="Eth1" style="text;html=1;resizable=0;labelBackgroundColor=default;align=center;verticalAlign=middle;fontStyle=1;fontColor=#333333;fontSize=13.3;" parent="9dSPCgguCx3j1RxGnscm-112" vertex="1">
          <mxGeometry x="0.8047719898566101" relative="1" as="geometry">
            <mxPoint as="offset" />
          </mxGeometry>
        </mxCell>
        <mxCell id="9dSPCgguCx3j1RxGnscm-114" value="" style="group;dropTarget=0;pointerEvents=0;html=1;" parent="1" vertex="1">
          <mxGeometry x="376" y="1495" width="400" height="213" as="geometry" />
        </mxCell>
        <mxCell id="9dSPCgguCx3j1RxGnscm-115" value="AS 55010" style="shape=partialRectangle;html=1;whiteSpace=wrap;connectable=0;fillColor=#ffffff;strokeWidth=2;strokeOpacity=100;verticalAlign=middle;spacing=3.8;strokeColor=#3a414a;rounded=1;absoluteArcSize=1;arcSize=9;fontSize=16.7;fontStyle=1;" parent="9dSPCgguCx3j1RxGnscm-114" vertex="1">
          <mxGeometry width="400.462962962963" height="33.75" as="geometry" />
        </mxCell>
        <mxCell id="9dSPCgguCx3j1RxGnscm-116" value="Device" style="shape=partialRectangle;html=1;whiteSpace=wrap;connectable=0;fillColor=#ffffff;strokeWidth=2;strokeOpacity=100;verticalAlign=middle;spacing=3.8;strokeColor=#3a414a;rounded=1;absoluteArcSize=1;arcSize=9;fontSize=16.7;fontStyle=1;" parent="9dSPCgguCx3j1RxGnscm-114" vertex="1">
          <mxGeometry y="33.75" width="61.15740740740741" height="33.75" as="geometry" />
        </mxCell>
        <mxCell id="9dSPCgguCx3j1RxGnscm-117" value="Interface" style="shape=partialRectangle;html=1;whiteSpace=wrap;connectable=0;fillColor=#ffffff;strokeWidth=2;strokeOpacity=100;verticalAlign=middle;spacing=3.8;strokeColor=#3a414a;rounded=1;absoluteArcSize=1;arcSize=9;fontSize=16.7;fontStyle=1;" parent="9dSPCgguCx3j1RxGnscm-114" vertex="1">
          <mxGeometry x="61.15740740740741" y="33.75" width="76.80555555555557" height="33.75" as="geometry" />
        </mxCell>
        <mxCell id="9dSPCgguCx3j1RxGnscm-118" value="Address" style="shape=partialRectangle;html=1;whiteSpace=wrap;connectable=0;fillColor=#ffffff;strokeWidth=2;strokeOpacity=100;verticalAlign=middle;spacing=3.8;strokeColor=#3a414a;rounded=1;absoluteArcSize=1;arcSize=9;fontSize=16.7;fontStyle=1;" parent="9dSPCgguCx3j1RxGnscm-114" vertex="1">
          <mxGeometry x="137.962962962963" y="33.75" width="135.87962962962962" height="33.75" as="geometry" />
        </mxCell>
        <mxCell id="9dSPCgguCx3j1RxGnscm-119" value="Notes" style="shape=partialRectangle;html=1;whiteSpace=wrap;connectable=0;fillColor=#ffffff;strokeWidth=2;strokeOpacity=100;verticalAlign=middle;spacing=3.8;strokeColor=#3a414a;rounded=1;absoluteArcSize=1;arcSize=9;fontSize=16.7;fontStyle=1;" parent="9dSPCgguCx3j1RxGnscm-114" vertex="1">
          <mxGeometry x="273.8425925925926" y="33.75" width="126.62037037037038" height="33.75" as="geometry" />
        </mxCell>
        <mxCell id="9dSPCgguCx3j1RxGnscm-120" value="R10" style="shape=partialRectangle;html=1;whiteSpace=wrap;connectable=0;fillColor=#ffffff;strokeWidth=2;strokeOpacity=100;verticalAlign=middle;spacing=3.8;strokeColor=#3a414a;rounded=1;absoluteArcSize=1;arcSize=9;fontSize=16.7;" parent="9dSPCgguCx3j1RxGnscm-114" vertex="1">
          <mxGeometry y="67.5" width="61.15740740740741" height="48.75" as="geometry" />
        </mxCell>
        <mxCell id="9dSPCgguCx3j1RxGnscm-121" value="Eth2" style="shape=partialRectangle;html=1;whiteSpace=wrap;connectable=0;fillColor=#ffffff;strokeWidth=2;strokeOpacity=100;verticalAlign=middle;spacing=3.8;strokeColor=#3a414a;rounded=1;absoluteArcSize=1;arcSize=9;fontSize=16.7;" parent="9dSPCgguCx3j1RxGnscm-114" vertex="1">
          <mxGeometry x="61.15740740740741" y="67.5" width="76.80555555555557" height="48.75" as="geometry" />
        </mxCell>
        <mxCell id="9dSPCgguCx3j1RxGnscm-122" value="&lt;div style=&quot;display: flex; justify-content: center; text-align: center; align-items: baseline; font-size: 0; line-height: 1.25;margin-top: -2px;&quot;&gt;&lt;span&gt;&lt;span style=&quot;font-size:16.7px;&quot;&gt;134.114.28.2/2&lt;/span&gt;&lt;span style=&quot;font-size:16.7px;&quot;&gt;4&lt;/span&gt;&lt;/span&gt;&lt;/div&gt;" style="shape=partialRectangle;html=1;whiteSpace=wrap;connectable=0;fillColor=#ffffff;strokeWidth=2;strokeOpacity=100;verticalAlign=middle;overflow=block;blockSpacing=1;spacing=3.8;strokeColor=#3a414a;rounded=1;absoluteArcSize=1;arcSize=9;fontSize=13;" parent="9dSPCgguCx3j1RxGnscm-114" vertex="1">
          <mxGeometry x="137.962962962963" y="67.5" width="135.87962962962962" height="48.75" as="geometry" />
        </mxCell>
        <mxCell id="9dSPCgguCx3j1RxGnscm-123" value="" style="shape=partialRectangle;html=1;whiteSpace=wrap;connectable=0;fillColor=#ffffff;strokeWidth=2;strokeOpacity=100;verticalAlign=middle;spacing=3.8;strokeColor=#3a414a;rounded=1;absoluteArcSize=1;arcSize=9;fontSize=13;" parent="9dSPCgguCx3j1RxGnscm-114" vertex="1">
          <mxGeometry x="273.8425925925926" y="67.5" width="126.62037037037038" height="48.75" as="geometry" />
        </mxCell>
        <mxCell id="9dSPCgguCx3j1RxGnscm-124" value="R10" style="shape=partialRectangle;html=1;whiteSpace=wrap;connectable=0;fillColor=#ffffff;strokeWidth=2;strokeOpacity=100;verticalAlign=middle;spacing=3.8;strokeColor=#3a414a;rounded=1;absoluteArcSize=1;arcSize=9;fontSize=16.7;" parent="9dSPCgguCx3j1RxGnscm-114" vertex="1">
          <mxGeometry y="116.25" width="61.15740740740741" height="36.75" as="geometry" />
        </mxCell>
        <mxCell id="9dSPCgguCx3j1RxGnscm-125" value="Eth1" style="shape=partialRectangle;html=1;whiteSpace=wrap;connectable=0;fillColor=#ffffff;strokeWidth=2;strokeOpacity=100;verticalAlign=middle;spacing=3.8;strokeColor=#3a414a;rounded=1;absoluteArcSize=1;arcSize=9;fontSize=16.7;" parent="9dSPCgguCx3j1RxGnscm-114" vertex="1">
          <mxGeometry x="61.15740740740741" y="116.25" width="76.80555555555557" height="36.75" as="geometry" />
        </mxCell>
        <mxCell id="9dSPCgguCx3j1RxGnscm-126" value="133.114.28.1/24" style="shape=partialRectangle;html=1;whiteSpace=wrap;connectable=0;fillColor=#ffffff;strokeWidth=2;strokeOpacity=100;verticalAlign=middle;spacing=3.8;strokeColor=#3a414a;rounded=1;absoluteArcSize=1;arcSize=9;fontSize=16.7;" parent="9dSPCgguCx3j1RxGnscm-114" vertex="1">
          <mxGeometry x="137.962962962963" y="116.25" width="135.87962962962962" height="36.75" as="geometry" />
        </mxCell>
        <mxCell id="9dSPCgguCx3j1RxGnscm-127" value="" style="shape=partialRectangle;html=1;whiteSpace=wrap;connectable=0;fillColor=#ffffff;strokeWidth=2;strokeOpacity=100;verticalAlign=middle;spacing=3.8;strokeColor=#3a414a;rounded=1;absoluteArcSize=1;arcSize=9;fontSize=13;" parent="9dSPCgguCx3j1RxGnscm-114" vertex="1">
          <mxGeometry x="273.8425925925926" y="116.25" width="126.62037037037038" height="36.75" as="geometry" />
        </mxCell>
        <mxCell id="9dSPCgguCx3j1RxGnscm-128" value="R10" style="shape=partialRectangle;html=1;whiteSpace=wrap;connectable=0;fillColor=#ffffff;strokeWidth=2;strokeOpacity=100;verticalAlign=middle;spacing=3.8;strokeColor=#3a414a;rounded=1;absoluteArcSize=1;arcSize=9;fontSize=16.7;" parent="9dSPCgguCx3j1RxGnscm-114" vertex="1">
          <mxGeometry y="153" width="61.15740740740741" height="36.75" as="geometry" />
        </mxCell>
        <mxCell id="9dSPCgguCx3j1RxGnscm-129" value="Eth3" style="shape=partialRectangle;html=1;whiteSpace=wrap;connectable=0;fillColor=#ffffff;strokeWidth=2;strokeOpacity=100;verticalAlign=middle;spacing=3.8;strokeColor=#3a414a;rounded=1;absoluteArcSize=1;arcSize=9;fontSize=16.7;" parent="9dSPCgguCx3j1RxGnscm-114" vertex="1">
          <mxGeometry x="61.15740740740741" y="153" width="76.80555555555557" height="36.75" as="geometry" />
        </mxCell>
        <mxCell id="9dSPCgguCx3j1RxGnscm-130" value="192.168.1.2/24" style="shape=partialRectangle;html=1;whiteSpace=wrap;connectable=0;fillColor=#ffffff;strokeWidth=2;strokeOpacity=100;verticalAlign=middle;spacing=3.8;strokeColor=#3a414a;rounded=1;absoluteArcSize=1;arcSize=9;fontSize=16.7;" parent="9dSPCgguCx3j1RxGnscm-114" vertex="1">
          <mxGeometry x="137.962962962963" y="153" width="135.87962962962962" height="36.75" as="geometry" />
        </mxCell>
        <mxCell id="9dSPCgguCx3j1RxGnscm-131" value="" style="shape=partialRectangle;html=1;whiteSpace=wrap;connectable=0;fillColor=#ffffff;strokeWidth=2;strokeOpacity=100;verticalAlign=middle;spacing=3.8;strokeColor=#3a414a;rounded=1;absoluteArcSize=1;arcSize=9;fontSize=13;" parent="9dSPCgguCx3j1RxGnscm-114" vertex="1">
          <mxGeometry x="273.8425925925926" y="153" width="126.62037037037038" height="36.75" as="geometry" />
        </mxCell>
        <mxCell id="9dSPCgguCx3j1RxGnscm-132" value="R11" style="shape=partialRectangle;html=1;whiteSpace=wrap;connectable=0;fillColor=#ffffff;strokeWidth=2;strokeOpacity=100;verticalAlign=middle;spacing=3.8;strokeColor=#3a414a;rounded=1;absoluteArcSize=1;arcSize=9;fontSize=16.7;" parent="9dSPCgguCx3j1RxGnscm-114" vertex="1">
          <mxGeometry y="189.75" width="61.15740740740741" height="30" as="geometry" />
        </mxCell>
        <mxCell id="9dSPCgguCx3j1RxGnscm-133" value="Eth1" style="shape=partialRectangle;html=1;whiteSpace=wrap;connectable=0;fillColor=#ffffff;strokeWidth=2;strokeOpacity=100;verticalAlign=middle;spacing=3.8;strokeColor=#3a414a;rounded=1;absoluteArcSize=1;arcSize=9;fontSize=16.7;" parent="9dSPCgguCx3j1RxGnscm-114" vertex="1">
          <mxGeometry x="61.15740740740741" y="189.75" width="76.80555555555557" height="30" as="geometry" />
        </mxCell>
        <mxCell id="9dSPCgguCx3j1RxGnscm-134" value="192.168.110.1/24" style="shape=partialRectangle;html=1;whiteSpace=wrap;connectable=0;fillColor=#ffffff;strokeWidth=2;strokeOpacity=100;verticalAlign=middle;spacing=3.8;strokeColor=#3a414a;rounded=1;absoluteArcSize=1;arcSize=9;fontSize=16.7;" parent="9dSPCgguCx3j1RxGnscm-114" vertex="1">
          <mxGeometry x="137.962962962963" y="189.75" width="135.87962962962962" height="30" as="geometry" />
        </mxCell>
        <mxCell id="9dSPCgguCx3j1RxGnscm-135" value="DHCP Server" style="shape=partialRectangle;html=1;whiteSpace=wrap;connectable=0;fillColor=#ffffff;strokeWidth=2;strokeOpacity=100;verticalAlign=middle;spacing=3.8;strokeColor=#3a414a;rounded=1;absoluteArcSize=1;arcSize=9;fontSize=16.7;" parent="9dSPCgguCx3j1RxGnscm-114" vertex="1">
          <mxGeometry x="273.8425925925926" y="189.75" width="126.62037037037038" height="30" as="geometry" />
        </mxCell>
        <mxCell id="9dSPCgguCx3j1RxGnscm-136" value="R11" style="shape=partialRectangle;html=1;whiteSpace=wrap;connectable=0;fillColor=#ffffff;strokeWidth=2;strokeOpacity=100;verticalAlign=middle;spacing=3.8;strokeColor=#3a414a;rounded=1;absoluteArcSize=1;arcSize=9;fontSize=16.7;" parent="9dSPCgguCx3j1RxGnscm-114" vertex="1">
          <mxGeometry y="219.75" width="61.15740740740741" height="30" as="geometry" />
        </mxCell>
        <mxCell id="9dSPCgguCx3j1RxGnscm-137" value="Eth2" style="shape=partialRectangle;html=1;whiteSpace=wrap;connectable=0;fillColor=#ffffff;strokeWidth=2;strokeOpacity=100;verticalAlign=middle;spacing=3.8;strokeColor=#3a414a;rounded=1;absoluteArcSize=1;arcSize=9;fontSize=16.7;" parent="9dSPCgguCx3j1RxGnscm-114" vertex="1">
          <mxGeometry x="61.15740740740741" y="219.75" width="76.80555555555557" height="30" as="geometry" />
        </mxCell>
        <mxCell id="9dSPCgguCx3j1RxGnscm-138" value="192.168.1.1/24" style="shape=partialRectangle;html=1;whiteSpace=wrap;connectable=0;fillColor=#ffffff;strokeWidth=2;strokeOpacity=100;verticalAlign=middle;spacing=3.8;strokeColor=#3a414a;rounded=1;absoluteArcSize=1;arcSize=9;fontSize=16.7;" parent="9dSPCgguCx3j1RxGnscm-114" vertex="1">
          <mxGeometry x="137.962962962963" y="219.75" width="135.87962962962962" height="30" as="geometry" />
        </mxCell>
        <mxCell id="9dSPCgguCx3j1RxGnscm-139" value="" style="shape=partialRectangle;html=1;whiteSpace=wrap;connectable=0;fillColor=#ffffff;strokeWidth=2;strokeOpacity=100;verticalAlign=middle;spacing=3.8;strokeColor=#3a414a;rounded=1;absoluteArcSize=1;arcSize=9;fontSize=13;" parent="9dSPCgguCx3j1RxGnscm-114" vertex="1">
          <mxGeometry x="273.8425925925926" y="219.75" width="126.62037037037038" height="30" as="geometry" />
        </mxCell>
        <mxCell id="9dSPCgguCx3j1RxGnscm-140" value="R11" style="shape=partialRectangle;html=1;whiteSpace=wrap;connectable=0;fillColor=#ffffff;strokeWidth=2;strokeOpacity=100;verticalAlign=middle;spacing=3.8;strokeColor=#3a414a;rounded=1;absoluteArcSize=1;arcSize=9;fontSize=16.7;" parent="9dSPCgguCx3j1RxGnscm-114" vertex="1">
          <mxGeometry y="249.75" width="61.15740740740741" height="30" as="geometry" />
        </mxCell>
        <mxCell id="9dSPCgguCx3j1RxGnscm-141" value="Eth3" style="shape=partialRectangle;html=1;whiteSpace=wrap;connectable=0;fillColor=#ffffff;strokeWidth=2;strokeOpacity=100;verticalAlign=middle;spacing=3.8;strokeColor=#3a414a;rounded=1;absoluteArcSize=1;arcSize=9;fontSize=16.7;" parent="9dSPCgguCx3j1RxGnscm-114" vertex="1">
          <mxGeometry x="61.15740740740741" y="249.75" width="76.80555555555557" height="30" as="geometry" />
        </mxCell>
        <mxCell id="9dSPCgguCx3j1RxGnscm-142" value="135.114.28.1/24" style="shape=partialRectangle;html=1;whiteSpace=wrap;connectable=0;fillColor=#ffffff;strokeWidth=2;strokeOpacity=100;verticalAlign=middle;spacing=3.8;strokeColor=#3a414a;rounded=1;absoluteArcSize=1;arcSize=9;fontSize=16.7;" parent="9dSPCgguCx3j1RxGnscm-114" vertex="1">
          <mxGeometry x="137.962962962963" y="249.75" width="135.87962962962962" height="30" as="geometry" />
        </mxCell>
        <mxCell id="9dSPCgguCx3j1RxGnscm-143" value="" style="shape=partialRectangle;html=1;whiteSpace=wrap;connectable=0;fillColor=#ffffff;strokeWidth=2;strokeOpacity=100;verticalAlign=middle;spacing=3.8;strokeColor=#3a414a;rounded=1;absoluteArcSize=1;arcSize=9;fontSize=13;" parent="9dSPCgguCx3j1RxGnscm-114" vertex="1">
          <mxGeometry x="273.8425925925926" y="249.75" width="126.62037037037038" height="30" as="geometry" />
        </mxCell>
        <mxCell id="9dSPCgguCx3j1RxGnscm-144" value="H4" style="shape=partialRectangle;html=1;whiteSpace=wrap;connectable=0;fillColor=#ffffff;strokeWidth=2;strokeOpacity=100;verticalAlign=middle;spacing=3.8;strokeColor=#3a414a;rounded=1;absoluteArcSize=1;arcSize=9;fontSize=16.7;" parent="9dSPCgguCx3j1RxGnscm-114" vertex="1">
          <mxGeometry y="279.75" width="61.15740740740741" height="30" as="geometry" />
        </mxCell>
        <mxCell id="9dSPCgguCx3j1RxGnscm-145" value="Eth1" style="shape=partialRectangle;html=1;whiteSpace=wrap;connectable=0;fillColor=#ffffff;strokeWidth=2;strokeOpacity=100;verticalAlign=middle;spacing=3.8;strokeColor=#3a414a;rounded=1;absoluteArcSize=1;arcSize=9;fontSize=16.7;" parent="9dSPCgguCx3j1RxGnscm-114" vertex="1">
          <mxGeometry x="61.15740740740741" y="279.75" width="76.80555555555557" height="30" as="geometry" />
        </mxCell>
        <mxCell id="9dSPCgguCx3j1RxGnscm-146" value="192.168.110.X" style="shape=partialRectangle;html=1;whiteSpace=wrap;connectable=0;fillColor=#ffffff;strokeWidth=2;strokeOpacity=100;verticalAlign=middle;spacing=3.8;strokeColor=#3a414a;rounded=1;absoluteArcSize=1;arcSize=9;fontSize=16.7;" parent="9dSPCgguCx3j1RxGnscm-114" vertex="1">
          <mxGeometry x="137.962962962963" y="279.75" width="135.87962962962962" height="30" as="geometry" />
        </mxCell>
        <mxCell id="9dSPCgguCx3j1RxGnscm-147" value="DHCP Client" style="shape=partialRectangle;html=1;whiteSpace=wrap;connectable=0;fillColor=#ffffff;strokeWidth=2;strokeOpacity=100;verticalAlign=middle;spacing=3.8;strokeColor=#3a414a;rounded=1;absoluteArcSize=1;arcSize=9;fontSize=16.7;" parent="9dSPCgguCx3j1RxGnscm-114" vertex="1">
          <mxGeometry x="273.8425925925926" y="279.75" width="126.62037037037038" height="30" as="geometry" />
        </mxCell>
        <mxCell id="9dSPCgguCx3j1RxGnscm-148" value="192.168.110.0/24" style="html=1;overflow=block;blockSpacing=1;whiteSpace=wrap;shape=cylinder3;direction=south;size=10;anchorPointDirection=0;boundedLbl=1;fontSize=16.7;spacing=3.8;strokeColor=#3a414a;strokeOpacity=100;fillOpacity=100;rounded=1;absoluteArcSize=1;arcSize=9;fillColor=#ffffff;strokeWidth=1.5;lucidId=qKVRq.omtLO-;" parent="1" vertex="1">
          <mxGeometry x="555" y="1329" width="195" height="45" as="geometry" />
        </mxCell>
        <mxCell id="9dSPCgguCx3j1RxGnscm-149" value="H4" style="html=1;overflow=block;blockSpacing=1;whiteSpace=wrap;shape=mxgraph.cisco.computers_and_peripherals.laptop;verticalLabelPosition=bottom;verticalAlign=top;fillColor=#036897;strokeColor=#ffffff;fontSize=13.3;fontColor=#333333;spacing=0;strokeOpacity=100;fillOpacity=100;strokeWidth=1.5;lucidId=0KVRapU-o06K;" parent="1" vertex="1">
          <mxGeometry x="270" y="1308" width="106" height="87" as="geometry" />
        </mxCell>
        <mxCell id="9dSPCgguCx3j1RxGnscm-150" value="" style="html=1;jettySize=18;whiteSpace=wrap;fontSize=13;strokeColor=#3a414a;strokeOpacity=100;strokeWidth=0.8;rounded=1;arcSize=12;edgeStyle=orthogonalEdgeStyle;startArrow=none;endArrow=none;exitX=1;exitY=0.5;exitPerimeter=0;entryX=-0.004;entryY=0.5;entryPerimeter=0;lucidId=8KVR8Z_KnX4S;" parent="1" source="9dSPCgguCx3j1RxGnscm-149" target="9dSPCgguCx3j1RxGnscm-148" edge="1">
          <mxGeometry width="100" height="100" relative="1" as="geometry">
            <Array as="points" />
          </mxGeometry>
        </mxCell>
        <mxCell id="9dSPCgguCx3j1RxGnscm-151" value="Eth1" style="text;html=1;resizable=0;labelBackgroundColor=default;align=center;verticalAlign=middle;fontStyle=1;fontColor=#333333;fontSize=13.3;" parent="9dSPCgguCx3j1RxGnscm-150" vertex="1">
          <mxGeometry x="-0.9342739709600496" relative="1" as="geometry">
            <mxPoint x="18" y="-14" as="offset" />
          </mxGeometry>
        </mxCell>
        <mxCell id="9dSPCgguCx3j1RxGnscm-152" value="R11" style="html=1;overflow=block;blockSpacing=1;whiteSpace=wrap;shape=mxgraph.cisco.routers.router;verticalLabelPosition=bottom;verticalAlign=top;fillColor=#036897;strokeColor=#ffffff;fontSize=18.3;fontFamily=Liberation Serif;spacing=0;strokeOpacity=100;fillOpacity=100;strokeWidth=1.5;lucidId=6ouS~GBme5HE;" parent="1" vertex="1">
          <mxGeometry x="942" y="1290" width="113" height="113" as="geometry" />
        </mxCell>
        <mxCell id="9dSPCgguCx3j1RxGnscm-153" value="" style="html=1;jettySize=18;whiteSpace=wrap;fontSize=13;strokeColor=#3a414a;strokeOpacity=100;strokeWidth=0.8;rounded=1;arcSize=12;edgeStyle=orthogonalEdgeStyle;startArrow=none;endArrow=none;exitX=0;exitY=0.5;exitPerimeter=0;entryX=1.003;entryY=0.55;entryPerimeter=0;lucidId=TpuStxyddQs3;" parent="1" source="9dSPCgguCx3j1RxGnscm-152" target="9dSPCgguCx3j1RxGnscm-148" edge="1">
          <mxGeometry width="100" height="100" relative="1" as="geometry">
            <Array as="points">
              <mxPoint x="942" y="1354" />
            </Array>
          </mxGeometry>
        </mxCell>
        <mxCell id="9dSPCgguCx3j1RxGnscm-154" value="Eth1" style="text;html=1;resizable=0;labelBackgroundColor=default;align=center;verticalAlign=middle;fontStyle=1;fontColor=#333333;fontSize=13.3;" parent="9dSPCgguCx3j1RxGnscm-153" vertex="1">
          <mxGeometry x="-0.6878501821137969" relative="1" as="geometry">
            <mxPoint y="-16" as="offset" />
          </mxGeometry>
        </mxCell>
        <mxCell id="9dSPCgguCx3j1RxGnscm-155" value="135.114.28.0/24" style="html=1;overflow=block;blockSpacing=1;whiteSpace=wrap;shape=cylinder3;direction=south;size=10;anchorPointDirection=0;boundedLbl=1;fontSize=16.7;spacing=3.8;verticalAlign=middle;strokeColor=#3a414a;strokeOpacity=100;fillOpacity=100;rounded=1;absoluteArcSize=1;arcSize=9;fillColor=#ffffff;strokeWidth=1.5;lucidId=CquSKc5vbUwf;" parent="1" vertex="1">
          <mxGeometry x="1290" y="1626" width="195" height="45" as="geometry" />
        </mxCell>
        <mxCell id="9dSPCgguCx3j1RxGnscm-156" value="" style="html=1;jettySize=18;whiteSpace=wrap;fontSize=13;strokeColor=#3a414a;strokeOpacity=100;strokeWidth=0.8;rounded=1;arcSize=12;edgeStyle=orthogonalEdgeStyle;startArrow=none;endArrow=none;exitX=0.002;exitY=0.339;exitPerimeter=0;entryX=0;entryY=0.5;entryPerimeter=0;lucidId=pruS.yVmMZCp;" parent="1" source="9dSPCgguCx3j1RxGnscm-163" target="9dSPCgguCx3j1RxGnscm-54" edge="1">
          <mxGeometry width="100" height="100" relative="1" as="geometry">
            <Array as="points" />
          </mxGeometry>
        </mxCell>
        <mxCell id="9dSPCgguCx3j1RxGnscm-157" value="&lt;b&gt;Eth3&lt;/b&gt;" style="edgeLabel;html=1;align=center;verticalAlign=middle;resizable=0;points=[];" parent="9dSPCgguCx3j1RxGnscm-156" vertex="1" connectable="0">
          <mxGeometry x="0.866" y="2" relative="1" as="geometry">
            <mxPoint x="-5" y="-10" as="offset" />
          </mxGeometry>
        </mxCell>
        <mxCell id="9dSPCgguCx3j1RxGnscm-159" value="" style="html=1;jettySize=18;whiteSpace=wrap;fontSize=13;strokeColor=#3a414a;strokeOpacity=100;strokeWidth=0.8;rounded=1;arcSize=12;edgeStyle=orthogonalEdgeStyle;startArrow=none;endArrow=none;exitX=1;exitY=0.438;exitPerimeter=0;entryX=-0.004;entryY=0.5;entryPerimeter=0;lucidId=qwuS7AupD4MG;" parent="1" source="9dSPCgguCx3j1RxGnscm-152" target="9dSPCgguCx3j1RxGnscm-155" edge="1">
          <mxGeometry width="100" height="100" relative="1" as="geometry">
            <Array as="points">
              <mxPoint x="1130" y="1339" />
              <mxPoint x="1130" y="1649" />
            </Array>
          </mxGeometry>
        </mxCell>
        <mxCell id="9dSPCgguCx3j1RxGnscm-160" value="Eth3" style="text;html=1;resizable=0;labelBackgroundColor=default;align=center;verticalAlign=middle;fontStyle=1;fontColor=#333333;fontSize=13.3;" parent="9dSPCgguCx3j1RxGnscm-159" vertex="1">
          <mxGeometry x="-0.8137591741620476" relative="1" as="geometry">
            <mxPoint x="-11" y="-10" as="offset" />
          </mxGeometry>
        </mxCell>
        <mxCell id="9dSPCgguCx3j1RxGnscm-163" value="192.168.1.0/24" style="html=1;overflow=block;blockSpacing=1;whiteSpace=wrap;shape=cylinder3;direction=south;size=10;anchorPointDirection=0;boundedLbl=1;fontSize=16.7;spacing=3.8;strokeColor=#3a414a;strokeOpacity=100;fillOpacity=100;rounded=1;absoluteArcSize=1;arcSize=9;fillColor=#ffffff;strokeWidth=1.5;lucidId=1AuSwqd-dB_D;" parent="1" vertex="1">
          <mxGeometry x="750" y="1195" width="195" height="45" as="geometry" />
        </mxCell>
        <mxCell id="9dSPCgguCx3j1RxGnscm-164" value="" style="html=1;jettySize=18;whiteSpace=wrap;fontSize=13;strokeColor=#3a414a;strokeOpacity=100;strokeWidth=0.8;rounded=1;arcSize=12;edgeStyle=orthogonalEdgeStyle;startArrow=none;endArrow=none;exitX=1.004;exitY=0.5;exitPerimeter=0;entryX=0.5;entryY=0;entryPerimeter=0;lucidId=bCuS91MJCl95;" parent="1" source="9dSPCgguCx3j1RxGnscm-163" target="9dSPCgguCx3j1RxGnscm-152" edge="1">
          <mxGeometry width="100" height="100" relative="1" as="geometry">
            <Array as="points" />
          </mxGeometry>
        </mxCell>
        <mxCell id="9dSPCgguCx3j1RxGnscm-228" value="&lt;b&gt;Eth2&lt;/b&gt;" style="edgeLabel;html=1;align=center;verticalAlign=middle;resizable=0;points=[];" parent="9dSPCgguCx3j1RxGnscm-164" vertex="1" connectable="0">
          <mxGeometry x="0.795" y="3" relative="1" as="geometry">
            <mxPoint x="19" y="-7" as="offset" />
          </mxGeometry>
        </mxCell>
        <mxCell id="9dSPCgguCx3j1RxGnscm-165" value="" style="group;dropTarget=0;pointerEvents=0;html=1;" parent="1" vertex="1">
          <mxGeometry x="2027" y="1930" width="400" height="310" as="geometry" />
        </mxCell>
        <mxCell id="9dSPCgguCx3j1RxGnscm-166" value="AS 54030" style="shape=partialRectangle;html=1;whiteSpace=wrap;connectable=0;fillColor=#ffffff;strokeWidth=2;strokeOpacity=100;verticalAlign=middle;spacing=3.8;strokeColor=#3a414a;rounded=1;absoluteArcSize=1;arcSize=9;fontSize=16.7;fontStyle=1;" parent="9dSPCgguCx3j1RxGnscm-165" vertex="1">
          <mxGeometry x="-307" width="400.462962962963" height="33.75" as="geometry" />
        </mxCell>
        <mxCell id="9dSPCgguCx3j1RxGnscm-167" value="Device" style="shape=partialRectangle;html=1;whiteSpace=wrap;connectable=0;fillColor=#ffffff;strokeWidth=2;strokeOpacity=100;verticalAlign=middle;spacing=3.8;strokeColor=#3a414a;rounded=1;absoluteArcSize=1;arcSize=9;fontSize=16.7;fontStyle=1;" parent="9dSPCgguCx3j1RxGnscm-165" vertex="1">
          <mxGeometry x="-307" y="33.75" width="61.15740740740741" height="33.75" as="geometry" />
        </mxCell>
        <mxCell id="9dSPCgguCx3j1RxGnscm-168" value="Interface" style="shape=partialRectangle;html=1;whiteSpace=wrap;connectable=0;fillColor=#ffffff;strokeWidth=2;strokeOpacity=100;verticalAlign=middle;spacing=3.8;strokeColor=#3a414a;rounded=1;absoluteArcSize=1;arcSize=9;fontSize=16.7;fontStyle=1;" parent="9dSPCgguCx3j1RxGnscm-165" vertex="1">
          <mxGeometry x="-245.84259259259258" y="33.75" width="76.80555555555557" height="33.75" as="geometry" />
        </mxCell>
        <mxCell id="9dSPCgguCx3j1RxGnscm-169" value="Address" style="shape=partialRectangle;html=1;whiteSpace=wrap;connectable=0;fillColor=#ffffff;strokeWidth=2;strokeOpacity=100;verticalAlign=middle;spacing=3.8;strokeColor=#3a414a;rounded=1;absoluteArcSize=1;arcSize=9;fontSize=16.7;fontStyle=1;" parent="9dSPCgguCx3j1RxGnscm-165" vertex="1">
          <mxGeometry x="-169.037037037037" y="33.75" width="135.87962962962962" height="33.75" as="geometry" />
        </mxCell>
        <mxCell id="9dSPCgguCx3j1RxGnscm-170" value="Notes" style="shape=partialRectangle;html=1;whiteSpace=wrap;connectable=0;fillColor=#ffffff;strokeWidth=2;strokeOpacity=100;verticalAlign=middle;spacing=3.8;strokeColor=#3a414a;rounded=1;absoluteArcSize=1;arcSize=9;fontSize=16.7;fontStyle=1;" parent="9dSPCgguCx3j1RxGnscm-165" vertex="1">
          <mxGeometry x="-33.15740740740739" y="33.75" width="126.62037037037038" height="33.75" as="geometry" />
        </mxCell>
        <mxCell id="9dSPCgguCx3j1RxGnscm-171" value="R30" style="shape=partialRectangle;html=1;whiteSpace=wrap;connectable=0;fillColor=#ffffff;strokeWidth=2;strokeOpacity=100;verticalAlign=middle;spacing=3.8;strokeColor=#3a414a;rounded=1;absoluteArcSize=1;arcSize=9;fontSize=16.7;" parent="9dSPCgguCx3j1RxGnscm-165" vertex="1">
          <mxGeometry x="-307" y="67.5" width="61.15740740740741" height="48.75" as="geometry" />
        </mxCell>
        <mxCell id="9dSPCgguCx3j1RxGnscm-172" value="Eth1" style="shape=partialRectangle;html=1;whiteSpace=wrap;connectable=0;fillColor=#ffffff;strokeWidth=2;strokeOpacity=100;verticalAlign=middle;spacing=3.8;strokeColor=#3a414a;rounded=1;absoluteArcSize=1;arcSize=9;fontSize=16.7;" parent="9dSPCgguCx3j1RxGnscm-165" vertex="1">
          <mxGeometry x="-245.84259259259258" y="67.5" width="76.80555555555557" height="48.75" as="geometry" />
        </mxCell>
        <mxCell id="9dSPCgguCx3j1RxGnscm-173" value="&lt;div style=&quot;display: flex; justify-content: center; text-align: center; align-items: baseline; font-size: 0; line-height: 1.25;margin-top: -2px;&quot;&gt;&lt;span&gt;&lt;span style=&quot;font-size:16.7px;&quot;&gt;135.114.28.2/2&lt;/span&gt;&lt;span style=&quot;font-size:16.7px;&quot;&gt;4&lt;/span&gt;&lt;/span&gt;&lt;/div&gt;" style="shape=partialRectangle;html=1;whiteSpace=wrap;connectable=0;fillColor=#ffffff;strokeWidth=2;strokeOpacity=100;verticalAlign=middle;overflow=block;blockSpacing=1;spacing=3.8;strokeColor=#3a414a;rounded=1;absoluteArcSize=1;arcSize=9;fontSize=13;" parent="9dSPCgguCx3j1RxGnscm-165" vertex="1">
          <mxGeometry x="-169.037037037037" y="67.5" width="135.87962962962962" height="48.75" as="geometry" />
        </mxCell>
        <mxCell id="9dSPCgguCx3j1RxGnscm-174" value="" style="shape=partialRectangle;html=1;whiteSpace=wrap;connectable=0;fillColor=#ffffff;strokeWidth=2;strokeOpacity=100;verticalAlign=middle;spacing=3.8;strokeColor=#3a414a;rounded=1;absoluteArcSize=1;arcSize=9;fontSize=13;" parent="9dSPCgguCx3j1RxGnscm-165" vertex="1">
          <mxGeometry x="-33.15740740740739" y="67.5" width="126.62037037037038" height="48.75" as="geometry" />
        </mxCell>
        <mxCell id="9dSPCgguCx3j1RxGnscm-175" value="R30" style="shape=partialRectangle;html=1;whiteSpace=wrap;connectable=0;fillColor=#ffffff;strokeWidth=2;strokeOpacity=100;verticalAlign=middle;spacing=3.8;strokeColor=#3a414a;rounded=1;absoluteArcSize=1;arcSize=9;fontSize=16.7;" parent="9dSPCgguCx3j1RxGnscm-165" vertex="1">
          <mxGeometry x="-307" y="116.25" width="61.15740740740741" height="36.75" as="geometry" />
        </mxCell>
        <mxCell id="9dSPCgguCx3j1RxGnscm-176" value="Eth2" style="shape=partialRectangle;html=1;whiteSpace=wrap;connectable=0;fillColor=#ffffff;strokeWidth=2;strokeOpacity=100;verticalAlign=middle;spacing=3.8;strokeColor=#3a414a;rounded=1;absoluteArcSize=1;arcSize=9;fontSize=16.7;" parent="9dSPCgguCx3j1RxGnscm-165" vertex="1">
          <mxGeometry x="-245.84259259259258" y="116.25" width="76.80555555555557" height="36.75" as="geometry" />
        </mxCell>
        <mxCell id="9dSPCgguCx3j1RxGnscm-177" value="" style="shape=partialRectangle;html=1;whiteSpace=wrap;connectable=0;fillColor=#ffffff;strokeWidth=2;strokeOpacity=100;verticalAlign=middle;spacing=3.8;strokeColor=#3a414a;rounded=1;absoluteArcSize=1;arcSize=9;fontSize=16.7;" parent="9dSPCgguCx3j1RxGnscm-165" vertex="1">
          <mxGeometry x="-169.037037037037" y="116.25" width="135.87962962962962" height="36.75" as="geometry" />
        </mxCell>
        <mxCell id="9dSPCgguCx3j1RxGnscm-178" value="" style="shape=partialRectangle;html=1;whiteSpace=wrap;connectable=0;fillColor=#ffffff;strokeWidth=2;strokeOpacity=100;verticalAlign=middle;spacing=3.8;strokeColor=#3a414a;rounded=1;absoluteArcSize=1;arcSize=9;fontSize=13;" parent="9dSPCgguCx3j1RxGnscm-165" vertex="1">
          <mxGeometry x="-33.15740740740739" y="116.25" width="126.62037037037038" height="36.75" as="geometry" />
        </mxCell>
        <mxCell id="9dSPCgguCx3j1RxGnscm-179" value="R30" style="shape=partialRectangle;html=1;whiteSpace=wrap;connectable=0;fillColor=#ffffff;strokeWidth=2;strokeOpacity=100;verticalAlign=middle;spacing=3.8;strokeColor=#3a414a;rounded=1;absoluteArcSize=1;arcSize=9;fontSize=16.7;" parent="9dSPCgguCx3j1RxGnscm-165" vertex="1">
          <mxGeometry x="-307" y="153" width="61.15740740740741" height="36.75" as="geometry" />
        </mxCell>
        <mxCell id="9dSPCgguCx3j1RxGnscm-180" value="Eth3" style="shape=partialRectangle;html=1;whiteSpace=wrap;connectable=0;fillColor=#ffffff;strokeWidth=2;strokeOpacity=100;verticalAlign=middle;spacing=3.8;strokeColor=#3a414a;rounded=1;absoluteArcSize=1;arcSize=9;fontSize=16.7;" parent="9dSPCgguCx3j1RxGnscm-165" vertex="1">
          <mxGeometry x="-245.84259259259258" y="153" width="76.80555555555557" height="36.75" as="geometry" />
        </mxCell>
        <mxCell id="9dSPCgguCx3j1RxGnscm-181" value="192.168.130.1/24" style="shape=partialRectangle;html=1;whiteSpace=wrap;connectable=0;fillColor=#ffffff;strokeWidth=2;strokeOpacity=100;verticalAlign=middle;spacing=3.8;strokeColor=#3a414a;rounded=1;absoluteArcSize=1;arcSize=9;fontSize=16.7;" parent="9dSPCgguCx3j1RxGnscm-165" vertex="1">
          <mxGeometry x="-169.037037037037" y="153" width="135.87962962962962" height="36.75" as="geometry" />
        </mxCell>
        <mxCell id="9dSPCgguCx3j1RxGnscm-182" value="DHCP Server" style="shape=partialRectangle;html=1;whiteSpace=wrap;connectable=0;fillColor=#ffffff;strokeWidth=2;strokeOpacity=100;verticalAlign=middle;spacing=3.8;strokeColor=#3a414a;rounded=1;absoluteArcSize=1;arcSize=9;fontSize=13;" parent="9dSPCgguCx3j1RxGnscm-165" vertex="1">
          <mxGeometry x="-33.15740740740739" y="153" width="126.62037037037038" height="36.75" as="geometry" />
        </mxCell>
        <mxCell id="9dSPCgguCx3j1RxGnscm-183" value="H5" style="shape=partialRectangle;html=1;whiteSpace=wrap;connectable=0;fillColor=#ffffff;strokeWidth=2;strokeOpacity=100;verticalAlign=middle;spacing=3.8;strokeColor=#3a414a;rounded=1;absoluteArcSize=1;arcSize=9;fontSize=16.7;" parent="9dSPCgguCx3j1RxGnscm-165" vertex="1">
          <mxGeometry x="-307" y="189.75" width="61.15740740740741" height="30" as="geometry" />
        </mxCell>
        <mxCell id="9dSPCgguCx3j1RxGnscm-184" value="Eth1" style="shape=partialRectangle;html=1;whiteSpace=wrap;connectable=0;fillColor=#ffffff;strokeWidth=2;strokeOpacity=100;verticalAlign=middle;spacing=3.8;strokeColor=#3a414a;rounded=1;absoluteArcSize=1;arcSize=9;fontSize=16.7;" parent="9dSPCgguCx3j1RxGnscm-165" vertex="1">
          <mxGeometry x="-245.84259259259258" y="189.75" width="76.80555555555557" height="30" as="geometry" />
        </mxCell>
        <mxCell id="9dSPCgguCx3j1RxGnscm-185" value="192.168.130.X" style="shape=partialRectangle;html=1;whiteSpace=wrap;connectable=0;fillColor=#ffffff;strokeWidth=2;strokeOpacity=100;verticalAlign=middle;spacing=3.8;strokeColor=#3a414a;rounded=1;absoluteArcSize=1;arcSize=9;fontSize=16.7;" parent="9dSPCgguCx3j1RxGnscm-165" vertex="1">
          <mxGeometry x="-169.037037037037" y="189.75" width="135.87962962962962" height="30" as="geometry" />
        </mxCell>
        <mxCell id="9dSPCgguCx3j1RxGnscm-186" value="DHCP Client" style="shape=partialRectangle;html=1;whiteSpace=wrap;connectable=0;fillColor=#ffffff;strokeWidth=2;strokeOpacity=100;verticalAlign=middle;spacing=3.8;strokeColor=#3a414a;rounded=1;absoluteArcSize=1;arcSize=9;fontSize=16.7;" parent="9dSPCgguCx3j1RxGnscm-165" vertex="1">
          <mxGeometry x="-33.15740740740739" y="189.75" width="126.62037037037038" height="30" as="geometry" />
        </mxCell>
        <mxCell id="9dSPCgguCx3j1RxGnscm-200" value="&lt;font style=&quot;font-size: 26px;&quot;&gt;&lt;b&gt;Internet&lt;/b&gt;&lt;/font&gt;" style="ellipse;shape=cloud;whiteSpace=wrap;html=1;align=center;" parent="1" vertex="1">
          <mxGeometry x="2090" y="1160" width="565" height="640" as="geometry" />
        </mxCell>
        <mxCell id="9dSPCgguCx3j1RxGnscm-238" style="edgeStyle=orthogonalEdgeStyle;rounded=0;orthogonalLoop=1;jettySize=auto;html=1;endArrow=none;startFill=0;" parent="1" source="9dSPCgguCx3j1RxGnscm-155" edge="1">
          <mxGeometry relative="1" as="geometry">
            <mxPoint x="1760" y="1648" as="targetPoint" />
          </mxGeometry>
        </mxCell>
        <mxCell id="9dSPCgguCx3j1RxGnscm-239" value="Eth1" style="edgeLabel;html=1;align=center;verticalAlign=middle;resizable=0;points=[];" parent="9dSPCgguCx3j1RxGnscm-238" vertex="1" connectable="0">
          <mxGeometry x="0.3188" y="-2" relative="1" as="geometry">
            <mxPoint x="74" y="-10" as="offset" />
          </mxGeometry>
        </mxCell>
        <mxCell id="9dSPCgguCx3j1RxGnscm-243" value="" style="endArrow=none;html=1;rounded=0;exitX=1;exitY=0.5;exitDx=0;exitDy=0;exitPerimeter=0;entryX=0.135;entryY=0.764;entryDx=0;entryDy=0;entryPerimeter=0;" parent="1" source="9dSPCgguCx3j1RxGnscm-158" target="9dSPCgguCx3j1RxGnscm-200" edge="1">
          <mxGeometry width="50" height="50" relative="1" as="geometry">
            <mxPoint x="2110" y="1650" as="sourcePoint" />
            <mxPoint x="2160" y="1600" as="targetPoint" />
          </mxGeometry>
        </mxCell>
        <mxCell id="9dSPCgguCx3j1RxGnscm-249" value="&lt;b&gt;Eth2&lt;/b&gt;" style="edgeLabel;html=1;align=center;verticalAlign=middle;resizable=0;points=[];" parent="9dSPCgguCx3j1RxGnscm-243" vertex="1" connectable="0">
          <mxGeometry x="-0.695" y="2" relative="1" as="geometry">
            <mxPoint x="-20" y="-7" as="offset" />
          </mxGeometry>
        </mxCell>
        <mxCell id="9dSPCgguCx3j1RxGnscm-247" value="" style="endArrow=none;html=1;rounded=0;exitX=0.88;exitY=0.9;exitDx=0;exitDy=0;exitPerimeter=0;" parent="1" source="9dSPCgguCx3j1RxGnscm-49" edge="1">
          <mxGeometry width="50" height="50" relative="1" as="geometry">
            <mxPoint x="2000" y="1220" as="sourcePoint" />
            <mxPoint x="2310" y="1224" as="targetPoint" />
          </mxGeometry>
        </mxCell>
        <mxCell id="9dSPCgguCx3j1RxGnscm-248" value="&lt;b&gt;Eth4&lt;/b&gt;" style="edgeLabel;html=1;align=center;verticalAlign=middle;resizable=0;points=[];" parent="9dSPCgguCx3j1RxGnscm-247" vertex="1" connectable="0">
          <mxGeometry x="-0.8763" relative="1" as="geometry">
            <mxPoint as="offset" />
          </mxGeometry>
        </mxCell>
        <mxCell id="9dSPCgguCx3j1RxGnscm-255" value="R20" style="shape=partialRectangle;html=1;whiteSpace=wrap;connectable=0;fillColor=#ffffff;strokeWidth=2;strokeOpacity=100;verticalAlign=middle;spacing=3.8;strokeColor=#3a414a;rounded=1;absoluteArcSize=1;arcSize=9;fontSize=16.7;" parent="1" vertex="1">
          <mxGeometry x="1710" y="1437" width="60" height="30" as="geometry" />
        </mxCell>
        <mxCell id="9dSPCgguCx3j1RxGnscm-256" value="Eth4" style="shape=partialRectangle;html=1;whiteSpace=wrap;connectable=0;fillColor=#ffffff;strokeWidth=2;strokeOpacity=100;verticalAlign=middle;spacing=3.8;strokeColor=#3a414a;rounded=1;absoluteArcSize=1;arcSize=9;fontSize=16.7;" parent="1" vertex="1">
          <mxGeometry x="1770" y="1437" width="72.26851851851852" height="30" as="geometry" />
        </mxCell>
        <mxCell id="9dSPCgguCx3j1RxGnscm-257" value="" style="shape=partialRectangle;html=1;whiteSpace=wrap;connectable=0;fillColor=#ffffff;strokeWidth=2;strokeOpacity=100;verticalAlign=middle;spacing=3.8;strokeColor=#3a414a;rounded=1;absoluteArcSize=1;arcSize=9;fontSize=16.7;" parent="1" vertex="1">
          <mxGeometry x="1842.2685185185185" y="1437" width="126.62037037037038" height="30" as="geometry" />
        </mxCell>
        <mxCell id="9dSPCgguCx3j1RxGnscm-258" value="" style="shape=partialRectangle;html=1;whiteSpace=wrap;connectable=0;fillColor=#ffffff;strokeWidth=2;strokeOpacity=100;verticalAlign=middle;spacing=3.8;strokeColor=#3a414a;rounded=1;absoluteArcSize=1;arcSize=9;fontSize=16.7;" parent="1" vertex="1">
          <mxGeometry x="1968.888888888889" y="1437" width="126.62037037037038" height="30" as="geometry" />
        </mxCell>
        <mxCell id="9dSPCgguCx3j1RxGnscm-108" value="Eth1" style="shape=partialRectangle;html=1;whiteSpace=wrap;connectable=0;fillColor=#ffffff;strokeWidth=2;strokeOpacity=100;verticalAlign=middle;spacing=3.8;strokeColor=#3a414a;rounded=1;absoluteArcSize=1;arcSize=9;fontSize=16.7;" parent="1" vertex="1">
          <mxGeometry x="1770" y="1462" width="72.26851851851852" height="30" as="geometry" />
        </mxCell>
        <mxCell id="9dSPCgguCx3j1RxGnscm-107" value="H3" style="shape=partialRectangle;html=1;whiteSpace=wrap;connectable=0;fillColor=#ffffff;strokeWidth=2;strokeOpacity=100;verticalAlign=middle;spacing=3.8;strokeColor=#3a414a;rounded=1;absoluteArcSize=1;arcSize=9;fontSize=16.7;" parent="1" vertex="1">
          <mxGeometry x="1710" y="1462" width="60" height="30" as="geometry" />
        </mxCell>
        <mxCell id="9dSPCgguCx3j1RxGnscm-109" value="192.168.120.X" style="shape=partialRectangle;html=1;whiteSpace=wrap;connectable=0;fillColor=#ffffff;strokeWidth=2;strokeOpacity=100;verticalAlign=middle;spacing=3.8;strokeColor=#3a414a;rounded=1;absoluteArcSize=1;arcSize=9;fontSize=16.7;" parent="1" vertex="1">
          <mxGeometry x="1842.2685185185185" y="1462" width="126.62037037037038" height="30" as="geometry" />
        </mxCell>
        <mxCell id="9dSPCgguCx3j1RxGnscm-110" value="DHCP Client" style="shape=partialRectangle;html=1;whiteSpace=wrap;connectable=0;fillColor=#ffffff;strokeWidth=2;strokeOpacity=100;verticalAlign=middle;spacing=3.8;strokeColor=#3a414a;rounded=1;absoluteArcSize=1;arcSize=9;fontSize=16.7;" parent="1" vertex="1">
          <mxGeometry x="1968.888888888889" y="1462" width="126.62037037037038" height="30" as="geometry" />
        </mxCell>
      </root>
    </mxGraphModel>
  </diagram>
</mxfile>
